  0
SECTION
  2
HEADER
  9
$ACADVER
  1
AC1009
  9
$DWGCODEPAGE
  3
ansi_1252
  9
$INSBASE
 10
0.0
 20
0.0
 30
0.0
  9
$EXTMIN
 10
641.4196975057584
 20
-160.226761336573
 30
86.52120007679997
  9
$EXTMAX
 10
955.4196975057586
 20
76.0
 30
100.5212000767999
  9
$LIMMIN
 10
0.0
 20
0.0
  9
$LIMMAX
 10
12.0
 20
9.0
  9
$ORTHOMODE
 70
     0
  9
$REGENMODE
 70
     1
  9
$FILLMODE
 70
     1
  9
$QTEXTMODE
 70
     0
  9
$MIRRTEXT
 70
     1
  9
$DRAGMODE
 70
     2
  9
$LTSCALE
 40
1.0
  9
$OSMODE
 70
    37
  9
$ATTMODE
 70
     1
  9
$TEXTSIZE
 40
0.2
  9
$TRACEWID
 40
0.05
  9
$TEXTSTYLE
  7
STANDARD
  9
$CLAYER
  8
DEFAULT
  9
$CELTYPE
  6
BYLAYER
  9
$CECOLOR
 62
   256
  9
$DIMSCALE
 40
1.0
  9
$DIMASZ
 40
0.18
  9
$DIMEXO
 40
0.0625
  9
$DIMDLI
 40
0.38
  9
$DIMRND
 40
0.0
  9
$DIMDLE
 40
0.0
  9
$DIMEXE
 40
0.18
  9
$DIMTP
 40
0.0
  9
$DIMTM
 40
0.0
  9
$DIMTXT
 40
0.18
  9
$DIMCEN
 40
0.09
  9
$DIMTSZ
 40
0.0
  9
$DIMTOL
 70
     0
  9
$DIMLIM
 70
     0
  9
$DIMTIH
 70
     1
  9
$DIMTOH
 70
     1
  9
$DIMSE1
 70
     0
  9
$DIMSE2
 70
     0
  9
$DIMTAD
 70
     0
  9
$DIMZIN
 70
     0
  9
$DIMBLK
  1

  9
$DIMASO
 70
     1
  9
$DIMSHO
 70
     1
  9
$DIMPOST
  1

  9
$DIMAPOST
  1

  9
$DIMALT
 70
     0
  9
$DIMALTD
 70
     2
  9
$DIMALTF
 40
25.4
  9
$DIMLFAC
 40
1.0
  9
$DIMTOFL
 70
     0
  9
$DIMTVP
 40
0.0
  9
$DIMTIX
 70
     0
  9
$DIMSOXD
 70
     0
  9
$DIMSAH
 70
     0
  9
$DIMBLK1
  1

  9
$DIMBLK2
  1

  9
$DIMSTYLE
  2
STANDARD_ACAD
  9
$DIMCLRD
 70
     0
  9
$DIMCLRE
 70
     0
  9
$DIMCLRT
 70
     0
  9
$DIMTFAC
 40
1.0
  9
$DIMGAP
 40
0.09
  9
$LUNITS
 70
     2
  9
$LUPREC
 70
     3
  9
$SKETCHINC
 40
0.1
  9
$FILLETRAD
 40
0.0
  9
$AUNITS
 70
     0
  9
$AUPREC
 70
     0
  9
$MENU
  1
.
  9
$ELEVATION
 40
0.0
  9
$PELEVATION
 40
0.0
  9
$THICKNESS
 40
0.0
  9
$LIMCHECK
 70
     0
  9
$CHAMFERA
 40
0.0
  9
$CHAMFERB
 40
0.0
  9
$SKPOLY
 70
     0
  9
$TDCREATE
 40
2461001.621109537
  9
$TDUPDATE
 40
2461001.621124109
  9
$TDINDWG
 40
0.0000000116
  9
$TDUSRTIMER
 40
0.0000000116
  9
$USRTIMER
 70
     1
  9
$ANGBASE
 50
0.0
  9
$ANGDIR
 70
     0
  9
$PDMODE
 70
     0
  9
$PDSIZE
 40
0.0
  9
$PLINEWID
 40
0.0
  9
$COORDS
 70
     1
  9
$SPLFRAME
 70
     0
  9
$SPLINETYPE
 70
     6
  9
$SPLINESEGS
 70
     8
  9
$ATTDIA
 70
     0
  9
$ATTREQ
 70
     1
  9
$HANDLING
 70
     1
  9
$HANDSEED
  5
42E
  9
$SURFTAB1
 70
     6
  9
$SURFTAB2
 70
     6
  9
$SURFTYPE
 70
     6
  9
$SURFU
 70
     6
  9
$SURFV
 70
     6
  9
$UCSNAME
  2

  9
$UCSORG
 10
0.0
 20
0.0
 30
0.0
  9
$UCSXDIR
 10
1.0
 20
0.0
 30
0.0
  9
$UCSYDIR
 10
0.0
 20
1.0
 30
0.0
  9
$PUCSNAME
  2

  9
$PUCSORG
 10
0.0
 20
0.0
 30
0.0
  9
$PUCSXDIR
 10
1.0
 20
0.0
 30
0.0
  9
$PUCSYDIR
 10
0.0
 20
1.0
 30
0.0
  9
$USERI1
 70
     0
  9
$USERI2
 70
     0
  9
$USERI3
 70
     0
  9
$USERI4
 70
     0
  9
$USERI5
 70
     0
  9
$USERR1
 40
0.0
  9
$USERR2
 40
0.0
  9
$USERR3
 40
0.0
  9
$USERR4
 40
0.0
  9
$USERR5
 40
0.0
  9
$WORLDVIEW
 70
     1
  9
$SHADEDGE
 70
     3
  9
$SHADEDIF
 70
    70
  9
$TILEMODE
 70
     1
  9
$MAXACTVP
 70
    64
  9
$PLIMCHECK
 70
     0
  9
$PEXTMIN
 10
1.000000000000000E+20
 20
1.000000000000000E+20
 30
1.000000000000000E+20
  9
$PEXTMAX
 10
-1.000000000000000E+20
 20
-1.000000000000000E+20
 30
-1.000000000000000E+20
  9
$PLIMMIN
 10
0.0
 20
0.0
  9
$PLIMMAX
 10
12.0
 20
9.0
  9
$UNITMODE
 70
     0
  9
$VISRETAIN
 70
     1
  9
$PLINEGEN
 70
     0
  9
$PSLTSCALE
 70
     1
  0
ENDSEC
  0
SECTION
  2
TABLES
  0
TABLE
  2
VPORT
 70
     1
  0
VPORT
  2
*ACTIVE
 70
     0
 10
0.0
 20
0.0
 11
1.0
 21
1.0
 12
10.42990654205607
 22
4.5
 13
0.0
 23
0.0
 14
0.5
 24
0.5
 15
0.5
 25
0.5
 16
0.0
 26
0.0
 36
1.0
 17
0.0
 27
0.0
 37
0.0
 40
9.0
 41
1.972972972850329
 42
50.0
 43
0.0
 44
0.0
 50
0.0
 51
0.0
 71
     0
 72
   100
 73
     1
 74
     3
 75
     0
 76
     0
 77
     0
 78
     0
  0
ENDTAB
  0
TABLE
  2
LTYPE
 70
     1
  0
LTYPE
  2
CONTINUOUS
 70
     0
  3
Solid line
 72
    65
 73
     0
 40
0.0
  0
ENDTAB
  0
TABLE
  2
LAYER
 70
     2
  0
LAYER
  2
0
 70
     0
 62
     7
  6
CONTINUOUS
  0
LAYER
  2
DEFAULT
 70
     0
 62
     7
  6
CONTINUOUS
  0
ENDTAB
  0
TABLE
  2
STYLE
 70
     1
  0
STYLE
  2
STANDARD
 70
     0
 40
0.0
 41
1.0
 50
0.0
 71
     0
 42
0.2
  3
txt
  4

  0
ENDTAB
  0
TABLE
  2
VIEW
 70
     0
  0
ENDTAB
  0
TABLE
  2
UCS
 70
     0
  0
ENDTAB
  0
TABLE
  2
APPID
 70
     2
  0
APPID
  2
ACAD
 70
     0
  0
APPID
  2
RHINO
 70
     0
  0
ENDTAB
  0
TABLE
  2
DIMSTYLE
 70
     1
  0
DIMSTYLE
  2
STANDARD_ACAD
 70
     0
  3

  4

  5

  6

  7

 40
1.0
 41
0.18
 42
0.0625
 43
0.38
 44
0.18
 45
0.0
 46
0.0
 47
0.0
 48
0.0
140
0.18
141
0.09
142
0.0
143
25.4
144
1.0
145
0.0
146
1.0
147
0.09
 71
     0
 72
     0
 73
     1
 74
     1
 75
     0
 76
     0
 77
     0
 78
     0
170
     0
171
     2
172
     0
173
     0
174
     0
175
     0
176
     0
177
     0
178
     0
  0
ENDTAB
  0
ENDSEC
  0
SECTION
  2
BLOCKS
  0
BLOCK
  8
0
  2
$MODEL_SPACE
 70
     0
 10
0.0
 20
0.0
 30
0.0
  3
$MODEL_SPACE
  1

  0
ENDBLK
  5
21
  8
0
  0
BLOCK
 67
     1
  8
0
  2
$PAPER_SPACE
 70
     0
 10
0.0
 20
0.0
 30
0.0
  3
$PAPER_SPACE
  1

  0
ENDBLK
  5
1D
 67
     1
  8
0
  0
ENDSEC
  0
SECTION
  2
ENTITIES
  0
POLYLINE
  5
60
  8
DEFAULT
 66
     1
 10
0.0
 20
0.0
 30
100.5212000767999
 70
     1
  0
VERTEX
  5
61
  8
DEFAULT
 10
759.4196975057583
 20
72.99999999999993
 30
100.5212000767999
  0
VERTEX
  5
62
  8
DEFAULT
 10
747.0
 20
72.99999999999993
 30
100.5212000767999
  0
VERTEX
  5
63
  8
DEFAULT
 10
747.0
 20
76.0
 30
100.5212000767999
  0
VERTEX
  5
64
  8
DEFAULT
 10
740.4196975057584
 20
76.0
 30
100.5212000767999
  0
VERTEX
  5
65
  8
DEFAULT
 10
740.4196975057584
 20
65.31869785192549
 30
100.5212000767999
  0
VERTEX
  5
66
  8
DEFAULT
 10
737.4196975057584
 20
65.31869785192549
 30
100.5212000767999
  0
VERTEX
  5
67
  8
DEFAULT
 10
737.4196975057584
 20
53.68130214807445
 30
100.5212000767999
  0
VERTEX
  5
68
  8
DEFAULT
 10
740.4196975057584
 20
53.68130214807445
 30
100.5212000767999
  0
VERTEX
  5
69
  8
DEFAULT
 10
740.4196975057584
 20
42.31869785192549
 30
100.5212000767999
  0
VERTEX
  5
6A
  8
DEFAULT
 10
737.4196975057584
 20
42.31869785192549
 30
100.5212000767999
  0
VERTEX
  5
6B
  8
DEFAULT
 10
737.4196975057584
 20
30.68130214807445
 30
100.5212000767999
  0
VERTEX
  5
6C
  8
DEFAULT
 10
740.4196975057584
 20
30.68130214807445
 30
100.5212000767999
  0
VERTEX
  5
6D
  8
DEFAULT
 10
740.4196975057584
 20
25.00000000000003
 30
100.5212000767999
  0
VERTEX
  5
6E
  8
DEFAULT
 10
758.0
 20
25.00000000000003
 30
100.5212000767999
  0
VERTEX
  5
6F
  8
DEFAULT
 10
758.0
 20
22.0
 30
100.5212000767999
  0
VERTEX
  5
70
  8
DEFAULT
 10
769.8393950115168
 20
22.0
 30
100.5212000767999
  0
VERTEX
  5
71
  8
DEFAULT
 10
769.8393950115168
 20
25.00000000000003
 30
100.5212000767999
  0
VERTEX
  5
72
  8
DEFAULT
 10
787.4196975057584
 20
25.0
 30
100.5212000767999
  0
VERTEX
  5
73
  8
DEFAULT
 10
787.4196975057584
 20
32.68130214807445
 30
100.5212000767999
  0
VERTEX
  5
74
  8
DEFAULT
 10
790.4196975057584
 20
32.68130214807445
 30
100.5212000767999
  0
VERTEX
  5
75
  8
DEFAULT
 10
790.4196975057584
 20
44.31869785192549
 30
100.5212000767999
  0
VERTEX
  5
76
  8
DEFAULT
 10
787.4196975057584
 20
44.31869785192549
 30
100.5212000767999
  0
VERTEX
  5
77
  8
DEFAULT
 10
787.4196975057584
 20
54.68130214807444
 30
100.5212000767999
  0
VERTEX
  5
78
  8
DEFAULT
 10
790.4196975057584
 20
54.68130214807444
 30
100.5212000767999
  0
VERTEX
  5
79
  8
DEFAULT
 10
790.4196975057584
 20
66.31869785192548
 30
100.5212000767999
  0
VERTEX
  5
7A
  8
DEFAULT
 10
787.4196975057584
 20
66.31869785192548
 30
100.5212000767999
  0
VERTEX
  5
7B
  8
DEFAULT
 10
787.4196975057584
 20
75.9999999999999
 30
100.5212000767999
  0
VERTEX
  5
7C
  8
DEFAULT
 10
781.4196975057583
 20
75.99999999999991
 30
100.5212000767999
  0
VERTEX
  5
7D
  8
DEFAULT
 10
781.4196975057583
 20
72.99999999999993
 30
100.5212000767999
  0
VERTEX
  5
7E
  8
DEFAULT
 10
769.0
 20
72.99999999999993
 30
100.5212000767999
  0
VERTEX
  5
7F
  8
DEFAULT
 10
769.0
 20
75.99999999999994
 30
100.5212000767999
  0
VERTEX
  5
80
  8
DEFAULT
 10
759.4196975057583
 20
75.99999999999997
 30
100.5212000767999
  0
SEQEND
  5
81
  8
DEFAULT
  0
POLYLINE
  5
82
  8
DEFAULT
 66
     1
 10
0.0
 20
0.0
 30
100.5212000767999
 70
     1
  0
VERTEX
  5
83
  8
DEFAULT
 10
793.4196975057584
 20
-7.226761336572963
 30
100.5212000767999
  0
VERTEX
  5
84
  8
DEFAULT
 10
793.6687514608366
 20
-7.225815291651088
 30
100.5212000767999
  0
VERTEX
  5
85
  8
DEFAULT
 10
793.9123732870084
 20
-7.219437117822963
 30
100.5212000767999
  0
VERTEX
  5
86
  8
DEFAULT
 10
794.0306308095915
 20
-7.212694640405971
 30
100.5212000767999
  0
VERTEX
  5
87
  8
DEFAULT
 10
794.1458022420866
 20
-7.20286607290109
 30
100.5212000767999
  0
VERTEX
  5
88
  8
DEFAULT
 10
794.202078682707
 20
-7.196642513521512
 30
100.5212000767999
  0
VERTEX
  5
89
  8
DEFAULT
 10
794.2574069326383
 20
-7.189470763452848
 30
100.5212000767999
  0
VERTEX
  5
8A
  8
DEFAULT
 10
794.311734062956
 20
-7.181297893770536
 30
100.5212000767999
  0
VERTEX
  5
8B
  8
DEFAULT
 10
794.3650100057584
 20
-7.172073836572965
 30
100.5212000767999
  0
VERTEX
  5
8C
  8
DEFAULT
 10
794.417187554167
 20
-7.161751384981473
 30
100.5212000767999
  0
VERTEX
  5
8D
  8
DEFAULT
 10
794.4682223623258
 20
-7.150286193140348
 30
100.5212000767999
  0
VERTEX
  5
8E
  8
DEFAULT
 10
794.5180729454023
 20
-7.137636776216825
 30
100.5212000767999
  0
VERTEX
  5
8F
  8
DEFAULT
 10
794.5667006795866
 20
-7.123764510401091
 30
100.5212000767999
  0
VERTEX
  5
90
  8
DEFAULT
 10
794.6140698020918
 20
-7.10863363290628
 30
100.5212000767999
  0
VERTEX
  5
91
  8
DEFAULT
 10
794.660147411154
 20
-7.092211241968475
 30
100.5212000767999
  0
VERTEX
  5
92
  8
DEFAULT
 10
794.6826923986537
 20
-7.083506229468189
 30
100.5212000767999
  0
VERTEX
  5
93
  8
DEFAULT
 10
794.7049034660322
 20
-7.074467296846711
 30
100.5212000767999
  0
VERTEX
  5
94
  8
DEFAULT
 10
794.7267773052317
 20
-7.065091136046254
 30
100.5212000767999
  0
VERTEX
  5
95
  8
DEFAULT
 10
794.7483107870084
 20
-7.055374617822968
 30
100.5212000767999
  0
VERTEX
  5
96
  8
DEFAULT
 10
794.7695009609324
 20
-7.045314791746938
 30
100.5212000767999
  0
VERTEX
  5
97
  8
DEFAULT
 10
794.7903450553877
 20
-7.03490888620218
 30
100.5212000767999
  0
VERTEX
  5
98
  8
DEFAULT
 10
794.8108404775721
 20
-7.024154308386647
 30
100.5212000767999
  0
VERTEX
  5
99
  8
DEFAULT
 10
794.8309848134977
 20
-7.013048644312226
 30
100.5212000767999
  0
VERTEX
  5
9A
  8
DEFAULT
 10
794.8507758279902
 20
-7.001589658804738
 30
100.5212000767999
  0
VERTEX
  5
9B
  8
DEFAULT
 10
794.8702114646894
 20
-6.989775295503938
 30
100.5212000767999
  0
VERTEX
  5
9C
  8
DEFAULT
 10
794.889289846049
 20
-6.977603676863515
 30
100.5212000767999
  0
VERTEX
  5
9D
  8
DEFAULT
 10
794.9080092733366
 20
-6.965073104151095
 30
100.5212000767999
  0
VERTEX
  5
9E
  8
DEFAULT
 10
794.9263682266337
 20
-6.952182057448233
 30
100.5212000767999
  0
VERTEX
  5
9F
  8
DEFAULT
 10
794.9443653648359
 20
-6.938929195650424
 30
100.5212000767999
  0
VERTEX
  5
A0
  8
DEFAULT
 10
794.9619995256526
 20
-6.925313356467093
 30
100.5212000767999
  0
VERTEX
  5
A1
  8
DEFAULT
 10
794.9792697256071
 20
-6.911333556421603
 30
100.5212000767999
  0
VERTEX
  5
A2
  8
DEFAULT
 10
794.9961751600367
 20
-6.896988990851249
 30
100.5212000767999
  0
VERTEX
  5
A3
  8
DEFAULT
 10
795.0127152030927
 20
-6.882279033907261
 30
100.5212000767999
  0
VERTEX
  5
A4
  8
DEFAULT
 10
795.0288894077403
 20
-6.867203238554803
 30
100.5212000767999
  0
VERTEX
  5
A5
  8
DEFAULT
 10
795.0446975057584
 20
-6.851761336572972
 30
100.5212000767999
  0
VERTEX
  5
A6
  8
DEFAULT
 10
795.0601394077403
 20
-6.835953238554803
 30
100.5212000767999
  0
VERTEX
  5
A7
  8
DEFAULT
 10
795.0752152030927
 20
-6.819779033907262
 30
100.5212000767999
  0
VERTEX
  5
A8
  8
DEFAULT
 10
795.0899251600367
 20
-6.80323899085125
 30
100.5212000767999
  0
VERTEX
  5
A9
  8
DEFAULT
 10
795.1042697256071
 20
-6.786333556421605
 30
100.5212000767999
  0
VERTEX
  5
AA
  8
DEFAULT
 10
795.1182495256526
 20
-6.769063356467096
 30
100.5212000767999
  0
VERTEX
  5
AB
  8
DEFAULT
 10
795.1318653648359
 20
-6.751429195650426
 30
100.5212000767999
  0
VERTEX
  5
AC
  8
DEFAULT
 10
795.1451182266337
 20
-6.733432057448237
 30
100.5212000767999
  0
VERTEX
  5
AD
  8
DEFAULT
 10
795.1580092733366
 20
-6.715073104151099
 30
100.5212000767999
  0
VERTEX
  5
AE
  8
DEFAULT
 10
795.170539846049
 20
-6.69635367686352
 30
100.5212000767999
  0
VERTEX
  5
AF
  8
DEFAULT
 10
795.1827114646894
 20
-6.677275295503943
 30
100.5212000767999
  0
VERTEX
  5
B0
  8
DEFAULT
 10
795.1945258279902
 20
-6.657839658804743
 30
100.5212000767999
  0
VERTEX
  5
B1
  8
DEFAULT
 10
795.2059848134977
 20
-6.638048644312232
 30
100.5212000767999
  0
VERTEX
  5
B2
  8
DEFAULT
 10
795.2170904775721
 20
-6.617904308386652
 30
100.5212000767999
  0
VERTEX
  5
B3
  8
DEFAULT
 10
795.2278450553877
 20
-6.597408886202185
 30
100.5212000767999
  0
VERTEX
  5
B4
  8
DEFAULT
 10
795.2382509609324
 20
-6.576564791746943
 30
100.5212000767999
  0
VERTEX
  5
B5
  8
DEFAULT
 10
795.2483107870084
 20
-6.555374617822974
 30
100.5212000767999
  0
VERTEX
  5
B6
  8
DEFAULT
 10
795.2580273052317
 20
-6.533841136046259
 30
100.5212000767999
  0
VERTEX
  5
B7
  8
DEFAULT
 10
795.2674034660322
 20
-6.511967296846716
 30
100.5212000767999
  0
VERTEX
  5
B8
  8
DEFAULT
 10
795.2764423986537
 20
-6.489756229468195
 30
100.5212000767999
  0
VERTEX
  5
B9
  8
DEFAULT
 10
795.285147411154
 20
-6.467211241968482
 30
100.5212000767999
  0
VERTEX
  5
BA
  8
DEFAULT
 10
795.3015698020918
 20
-6.421133632906287
 30
100.5212000767999
  0
VERTEX
  5
BB
  8
DEFAULT
 10
795.3167006795866
 20
-6.373764510401099
 30
100.5212000767999
  0
VERTEX
  5
BC
  8
DEFAULT
 10
795.3305729454023
 20
-6.325136776216834
 30
100.5212000767999
  0
VERTEX
  5
BD
  8
DEFAULT
 10
795.3432223623258
 20
-6.275286193140357
 30
100.5212000767999
  0
VERTEX
  5
BE
  8
DEFAULT
 10
795.354687554167
 20
-6.224251384981482
 30
100.5212000767999
  0
VERTEX
  5
BF
  8
DEFAULT
 10
795.3650100057584
 20
-6.172073836572974
 30
100.5212000767999
  0
VERTEX
  5
C0
  8
DEFAULT
 10
795.374234062956
 20
-6.118797893770544
 30
100.5212000767999
  0
VERTEX
  5
C1
  8
DEFAULT
 10
795.3824069326383
 20
-6.064470763452855
 30
100.5212000767999
  0
VERTEX
  5
C2
  8
DEFAULT
 10
795.389578682707
 20
-6.009142513521519
 30
100.5212000767999
  0
VERTEX
  5
C3
  8
DEFAULT
 10
795.3958022420866
 20
-5.952866072901097
 30
100.5212000767999
  0
VERTEX
  5
C4
  8
DEFAULT
 10
795.4056308095915
 20
-5.837694640405978
 30
100.5212000767999
  0
VERTEX
  5
C5
  8
DEFAULT
 10
795.4123732870084
 20
-5.719437117822969
 30
100.5212000767999
  0
VERTEX
  5
C6
  8
DEFAULT
 10
795.4187514608366
 20
-5.475815291651092
 30
100.5212000767999
  0
VERTEX
  5
C7
  8
DEFAULT
 10
795.4196975057584
 20
-5.226761336572963
 30
100.5212000767999
  0
VERTEX
  5
C8
  8
DEFAULT
 10
795.4196975057584
 20
0.773238663427037
 30
100.5212000767999
  0
VERTEX
  5
C9
  8
DEFAULT
 10
795.4187514608366
 20
1.022292618505157
 30
100.5212000767999
  0
VERTEX
  5
CA
  8
DEFAULT
 10
795.4123732870084
 20
1.265914444677027
 30
100.5212000767999
  0
VERTEX
  5
CB
  8
DEFAULT
 10
795.4056308095915
 20
1.384171967260033
 30
100.5212000767999
  0
VERTEX
  5
CC
  8
DEFAULT
 10
795.3958022420866
 20
1.499343399755149
 30
100.5212000767999
  0
VERTEX
  5
CD
  8
DEFAULT
 10
795.389578682707
 20
1.55561984037557
 30
100.5212000767999
  0
VERTEX
  5
CE
  8
DEFAULT
 10
795.3824069326383
 20
1.610948090306905
 30
100.5212000767999
  0
VERTEX
  5
CF
  8
DEFAULT
 10
795.374234062956
 20
1.665275220624593
 30
100.5212000767999
  0
VERTEX
  5
D0
  8
DEFAULT
 10
795.3650100057584
 20
1.718551163427021
 30
100.5212000767999
  0
VERTEX
  5
D1
  8
DEFAULT
 10
795.354687554167
 20
1.770728711835529
 30
100.5212000767999
  0
VERTEX
  5
D2
  8
DEFAULT
 10
795.3432223623258
 20
1.821763519994403
 30
100.5212000767999
  0
VERTEX
  5
D3
  8
DEFAULT
 10
795.3305729454023
 20
1.87161410307088
 30
100.5212000767999
  0
VERTEX
  5
D4
  8
DEFAULT
 10
795.3167006795866
 20
1.920241837255145
 30
100.5212000767999
  0
VERTEX
  5
D5
  8
DEFAULT
 10
795.3015698020918
 20
1.967610959760333
 30
100.5212000767999
  0
VERTEX
  5
D6
  8
DEFAULT
 10
795.285147411154
 20
2.013688568822528
 30
100.5212000767999
  0
VERTEX
  5
D7
  8
DEFAULT
 10
795.2764423986537
 20
2.036233556322242
 30
100.5212000767999
  0
VERTEX
  5
D8
  8
DEFAULT
 10
795.2674034660322
 20
2.058444623700763
 30
100.5212000767999
  0
VERTEX
  5
D9
  8
DEFAULT
 10
795.2580273052317
 20
2.080318462900306
 30
100.5212000767999
  0
VERTEX
  5
DA
  8
DEFAULT
 10
795.2483107870084
 20
2.10185194467702
 30
100.5212000767999
  0
VERTEX
  5
DB
  8
DEFAULT
 10
795.2382509609324
 20
2.123042118600989
 30
100.5212000767999
  0
VERTEX
  5
DC
  8
DEFAULT
 10
795.2278450553877
 20
2.143886213056232
 30
100.5212000767999
  0
VERTEX
  5
DD
  8
DEFAULT
 10
795.2170904775721
 20
2.164381635240699
 30
100.5212000767999
  0
VERTEX
  5
DE
  8
DEFAULT
 10
795.2059848134977
 20
2.184525971166279
 30
100.5212000767999
  0
VERTEX
  5
DF
  8
DEFAULT
 10
795.1945258279902
 20
2.204316985658791
 30
100.5212000767999
  0
VERTEX
  5
E0
  8
DEFAULT
 10
795.1827114646894
 20
2.22375262235799
 30
100.5212000767999
  0
VERTEX
  5
E1
  8
DEFAULT
 10
795.170539846049
 20
2.242831003717567
 30
100.5212000767999
  0
VERTEX
  5
E2
  8
DEFAULT
 10
795.1580092733366
 20
2.261550431005146
 30
100.5212000767999
  0
VERTEX
  5
E3
  8
DEFAULT
 10
795.1451182266337
 20
2.279909384302285
 30
100.5212000767999
  0
VERTEX
  5
E4
  8
DEFAULT
 10
795.1318653648359
 20
2.297906522504475
 30
100.5212000767999
  0
VERTEX
  5
E5
  8
DEFAULT
 10
795.1182495256526
 20
2.315540683321145
 30
100.5212000767999
  0
VERTEX
  5
E6
  8
DEFAULT
 10
795.1042697256071
 20
2.332810883275656
 30
100.5212000767999
  0
VERTEX
  5
E7
  8
DEFAULT
 10
795.0899251600367
 20
2.349716317705301
 30
100.5212000767999
  0
VERTEX
  5
E8
  8
DEFAULT
 10
795.0752152030927
 20
2.366256360761313
 30
100.5212000767999
  0
VERTEX
  5
E9
  8
DEFAULT
 10
795.0601394077403
 20
2.382430565408854
 30
100.5212000767999
  0
VERTEX
  5
EA
  8
DEFAULT
 10
795.0446975057584
 20
2.398238663427024
 30
100.5212000767999
  0
VERTEX
  5
EB
  8
DEFAULT
 10
795.0288894077403
 20
2.413680565408854
 30
100.5212000767999
  0
VERTEX
  5
EC
  8
DEFAULT
 10
795.0127152030927
 20
2.428756360761314
 30
100.5212000767999
  0
VERTEX
  5
ED
  8
DEFAULT
 10
794.9961751600367
 20
2.443466317705303
 30
100.5212000767999
  0
VERTEX
  5
EE
  8
DEFAULT
 10
794.9792697256071
 20
2.457810883275657
 30
100.5212000767999
  0
VERTEX
  5
EF
  8
DEFAULT
 10
794.9619995256526
 20
2.471790683321148
 30
100.5212000767999
  0
VERTEX
  5
F0
  8
DEFAULT
 10
794.9443653648359
 20
2.485406522504479
 30
100.5212000767999
  0
VERTEX
  5
F1
  8
DEFAULT
 10
794.9263682266337
 20
2.498659384302289
 30
100.5212000767999
  0
VERTEX
  5
F2
  8
DEFAULT
 10
794.9080092733366
 20
2.511550431005151
 30
100.5212000767999
  0
VERTEX
  5
F3
  8
DEFAULT
 10
794.889289846049
 20
2.524081003717573
 30
100.5212000767999
  0
VERTEX
  5
F4
  8
DEFAULT
 10
794.8702114646894
 20
2.536252622357996
 30
100.5212000767999
  0
VERTEX
  5
F5
  8
DEFAULT
 10
794.8507758279902
 20
2.548066985658796
 30
100.5212000767999
  0
VERTEX
  5
F6
  8
DEFAULT
 10
794.8309848134977
 20
2.559525971166285
 30
100.5212000767999
  0
VERTEX
  5
F7
  8
DEFAULT
 10
794.8108404775721
 20
2.570631635240706
 30
100.5212000767999
  0
VERTEX
  5
F8
  8
DEFAULT
 10
794.7903450553877
 20
2.581386213056239
 30
100.5212000767999
  0
VERTEX
  5
F9
  8
DEFAULT
 10
794.7695009609324
 20
2.591792118600998
 30
100.5212000767999
  0
VERTEX
  5
FA
  8
DEFAULT
 10
794.7483107870086
 20
2.601851944677029
 30
100.5212000767999
  0
VERTEX
  5
FB
  8
DEFAULT
 10
794.726777305232
 20
2.611568462900314
 30
100.5212000767999
  0
VERTEX
  5
FC
  8
DEFAULT
 10
794.7049034660324
 20
2.620944623700772
 30
100.5212000767999
  0
VERTEX
  5
FD
  8
DEFAULT
 10
794.6826923986539
 20
2.629983556322252
 30
100.5212000767999
  0
VERTEX
  5
FE
  8
DEFAULT
 10
794.6601474111542
 20
2.638688568822538
 30
100.5212000767999
  0
VERTEX
  5
FF
  8
DEFAULT
 10
794.614069802092
 20
2.655110959760344
 30
100.5212000767999
  0
VERTEX
  5
100
  8
DEFAULT
 10
794.5667006795868
 20
2.670241837255156
 30
100.5212000767999
  0
VERTEX
  5
101
  8
DEFAULT
 10
794.5180729454025
 20
2.684114103070891
 30
100.5212000767999
  0
VERTEX
  5
102
  8
DEFAULT
 10
794.4682223623261
 20
2.696763519994415
 30
100.5212000767999
  0
VERTEX
  5
103
  8
DEFAULT
 10
794.4171875541672
 20
2.708228711835541
 30
100.5212000767999
  0
VERTEX
  5
104
  8
DEFAULT
 10
794.3650100057587
 20
2.718551163427033
 30
100.5212000767999
  0
VERTEX
  5
105
  8
DEFAULT
 10
794.3117340629562
 20
2.727775220624605
 30
100.5212000767999
  0
VERTEX
  5
106
  8
DEFAULT
 10
794.2574069326384
 20
2.735948090306917
 30
100.5212000767999
  0
VERTEX
  5
107
  8
DEFAULT
 10
794.202078682707
 20
2.743119840375583
 30
100.5212000767999
  0
VERTEX
  5
108
  8
DEFAULT
 10
794.1458022420867
 20
2.74934339975516
 30
100.5212000767999
  0
VERTEX
  5
109
  8
DEFAULT
 10
794.0306308095915
 20
2.759171967260043
 30
100.5212000767999
  0
VERTEX
  5
10A
  8
DEFAULT
 10
793.9123732870084
 20
2.765914444677036
 30
100.5212000767999
  0
VERTEX
  5
10B
  8
DEFAULT
 10
793.6687514608366
 20
2.772292618505162
 30
100.5212000767999
  0
VERTEX
  5
10C
  8
DEFAULT
 10
793.4196975057584
 20
2.773238663427037
 30
100.5212000767999
  0
VERTEX
  5
10D
  8
DEFAULT
 10
787.4196975057584
 20
2.773238663427037
 30
100.5212000767999
  0
VERTEX
  5
10E
  8
DEFAULT
 10
787.4196975057584
 20
19.27323866342704
 30
100.5212000767999
  0
VERTEX
  5
10F
  8
DEFAULT
 10
770.2098487528792
 20
19.27323866342704
 30
100.5212000767999
  0
VERTEX
  5
110
  8
DEFAULT
 10
770.2098487528792
 20
16.27323866342704
 30
100.5212000767999
  0
VERTEX
  5
111
  8
DEFAULT
 10
757.6295462586376
 20
16.27323866342704
 30
100.5212000767999
  0
VERTEX
  5
112
  8
DEFAULT
 10
757.6295462586376
 20
19.27323866342704
 30
100.5212000767999
  0
VERTEX
  5
113
  8
DEFAULT
 10
740.4196975057584
 20
19.27323866342704
 30
100.5212000767999
  0
VERTEX
  5
114
  8
DEFAULT
 10
740.4196975057584
 20
2.091936515352558
 30
100.5212000767999
  0
VERTEX
  5
115
  8
DEFAULT
 10
737.4196975057584
 20
2.091936515352558
 30
100.5212000767999
  0
VERTEX
  5
116
  8
DEFAULT
 10
737.4196975057584
 20
-9.545459188498455
 30
100.5212000767999
  0
VERTEX
  5
117
  8
DEFAULT
 10
740.4196975057583
 20
-9.545459188498455
 30
100.5212000767999
  0
VERTEX
  5
118
  8
DEFAULT
 10
740.4196975057583
 20
-19.72676133657296
 30
100.5212000767999
  0
VERTEX
  5
119
  8
DEFAULT
 10
787.4196975057584
 20
-19.72676133657296
 30
100.5212000767999
  0
VERTEX
  5
11A
  8
DEFAULT
 10
787.4196975057584
 20
-7.226761336572963
 30
100.5212000767999
  0
SEQEND
  5
11B
  8
DEFAULT
  0
POLYLINE
  5
11C
  8
DEFAULT
 66
     1
 10
0.0
 20
0.0
 30
100.5212000767999
 70
     1
  0
VERTEX
  5
11D
  8
DEFAULT
 10
793.4196975057584
 20
-128.226761336573
 30
100.5212000767999
  0
VERTEX
  5
11E
  8
DEFAULT
 10
793.6687514608366
 20
-128.2258152916511
 30
100.5212000767999
  0
VERTEX
  5
11F
  8
DEFAULT
 10
793.9123732870084
 20
-128.219437117823
 30
100.5212000767999
  0
VERTEX
  5
120
  8
DEFAULT
 10
794.0306308095915
 20
-128.212694640406
 30
100.5212000767999
  0
VERTEX
  5
121
  8
DEFAULT
 10
794.1458022420866
 20
-128.2028660729011
 30
100.5212000767999
  0
VERTEX
  5
122
  8
DEFAULT
 10
794.202078682707
 20
-128.1966425135215
 30
100.5212000767999
  0
VERTEX
  5
123
  8
DEFAULT
 10
794.2574069326383
 20
-128.1894707634528
 30
100.5212000767999
  0
VERTEX
  5
124
  8
DEFAULT
 10
794.311734062956
 20
-128.1812978937705
 30
100.5212000767999
  0
VERTEX
  5
125
  8
DEFAULT
 10
794.3650100057584
 20
-128.172073836573
 30
100.5212000767999
  0
VERTEX
  5
126
  8
DEFAULT
 10
794.417187554167
 20
-128.1617513849815
 30
100.5212000767999
  0
VERTEX
  5
127
  8
DEFAULT
 10
794.4682223623258
 20
-128.1502861931403
 30
100.5212000767999
  0
VERTEX
  5
128
  8
DEFAULT
 10
794.5180729454023
 20
-128.1376367762168
 30
100.5212000767999
  0
VERTEX
  5
129
  8
DEFAULT
 10
794.5667006795866
 20
-128.1237645104011
 30
100.5212000767999
  0
VERTEX
  5
12A
  8
DEFAULT
 10
794.6140698020918
 20
-128.1086336329063
 30
100.5212000767999
  0
VERTEX
  5
12B
  8
DEFAULT
 10
794.660147411154
 20
-128.0922112419685
 30
100.5212000767999
  0
VERTEX
  5
12C
  8
DEFAULT
 10
794.6826923986537
 20
-128.0835062294682
 30
100.5212000767999
  0
VERTEX
  5
12D
  8
DEFAULT
 10
794.7049034660322
 20
-128.0744672968467
 30
100.5212000767999
  0
VERTEX
  5
12E
  8
DEFAULT
 10
794.7267773052317
 20
-128.0650911360462
 30
100.5212000767999
  0
VERTEX
  5
12F
  8
DEFAULT
 10
794.7483107870084
 20
-128.055374617823
 30
100.5212000767999
  0
VERTEX
  5
130
  8
DEFAULT
 10
794.7695009609324
 20
-128.0453147917469
 30
100.5212000767999
  0
VERTEX
  5
131
  8
DEFAULT
 10
794.7903450553877
 20
-128.0349088862022
 30
100.5212000767999
  0
VERTEX
  5
132
  8
DEFAULT
 10
794.8108404775721
 20
-128.0241543083866
 30
100.5212000767999
  0
VERTEX
  5
133
  8
DEFAULT
 10
794.8309848134977
 20
-128.0130486443122
 30
100.5212000767999
  0
VERTEX
  5
134
  8
DEFAULT
 10
794.8507758279902
 20
-128.0015896588047
 30
100.5212000767999
  0
VERTEX
  5
135
  8
DEFAULT
 10
794.8702114646894
 20
-127.9897752955039
 30
100.5212000767999
  0
VERTEX
  5
136
  8
DEFAULT
 10
794.889289846049
 20
-127.9776036768635
 30
100.5212000767999
  0
VERTEX
  5
137
  8
DEFAULT
 10
794.9080092733366
 20
-127.9650731041511
 30
100.5212000767999
  0
VERTEX
  5
138
  8
DEFAULT
 10
794.9263682266337
 20
-127.9521820574482
 30
100.5212000767999
  0
VERTEX
  5
139
  8
DEFAULT
 10
794.9443653648359
 20
-127.9389291956504
 30
100.5212000767999
  0
VERTEX
  5
13A
  8
DEFAULT
 10
794.9619995256526
 20
-127.9253133564671
 30
100.5212000767999
  0
VERTEX
  5
13B
  8
DEFAULT
 10
794.9792697256071
 20
-127.9113335564216
 30
100.5212000767999
  0
VERTEX
  5
13C
  8
DEFAULT
 10
794.9961751600367
 20
-127.8969889908512
 30
100.5212000767999
  0
VERTEX
  5
13D
  8
DEFAULT
 10
795.0127152030927
 20
-127.8822790339073
 30
100.5212000767999
  0
VERTEX
  5
13E
  8
DEFAULT
 10
795.0288894077403
 20
-127.8672032385548
 30
100.5212000767999
  0
VERTEX
  5
13F
  8
DEFAULT
 10
795.0446975057584
 20
-127.851761336573
 30
100.5212000767999
  0
VERTEX
  5
140
  8
DEFAULT
 10
795.0601394077403
 20
-127.8359532385548
 30
100.5212000767999
  0
VERTEX
  5
141
  8
DEFAULT
 10
795.0752152030927
 20
-127.8197790339073
 30
100.5212000767999
  0
VERTEX
  5
142
  8
DEFAULT
 10
795.0899251600367
 20
-127.8032389908512
 30
100.5212000767999
  0
VERTEX
  5
143
  8
DEFAULT
 10
795.1042697256071
 20
-127.7863335564216
 30
100.5212000767999
  0
VERTEX
  5
144
  8
DEFAULT
 10
795.1182495256526
 20
-127.7690633564671
 30
100.5212000767999
  0
VERTEX
  5
145
  8
DEFAULT
 10
795.1318653648359
 20
-127.7514291956504
 30
100.5212000767999
  0
VERTEX
  5
146
  8
DEFAULT
 10
795.1451182266337
 20
-127.7334320574482
 30
100.5212000767999
  0
VERTEX
  5
147
  8
DEFAULT
 10
795.1580092733366
 20
-127.7150731041511
 30
100.5212000767999
  0
VERTEX
  5
148
  8
DEFAULT
 10
795.170539846049
 20
-127.6963536768635
 30
100.5212000767999
  0
VERTEX
  5
149
  8
DEFAULT
 10
795.1827114646894
 20
-127.6772752955039
 30
100.5212000767999
  0
VERTEX
  5
14A
  8
DEFAULT
 10
795.1945258279902
 20
-127.6578396588047
 30
100.5212000767999
  0
VERTEX
  5
14B
  8
DEFAULT
 10
795.2059848134977
 20
-127.6380486443122
 30
100.5212000767999
  0
VERTEX
  5
14C
  8
DEFAULT
 10
795.2170904775721
 20
-127.6179043083866
 30
100.5212000767999
  0
VERTEX
  5
14D
  8
DEFAULT
 10
795.2278450553877
 20
-127.5974088862022
 30
100.5212000767999
  0
VERTEX
  5
14E
  8
DEFAULT
 10
795.2382509609324
 20
-127.5765647917469
 30
100.5212000767999
  0
VERTEX
  5
14F
  8
DEFAULT
 10
795.2483107870084
 20
-127.555374617823
 30
100.5212000767999
  0
VERTEX
  5
150
  8
DEFAULT
 10
795.2580273052317
 20
-127.5338411360462
 30
100.5212000767999
  0
VERTEX
  5
151
  8
DEFAULT
 10
795.2674034660322
 20
-127.5119672968467
 30
100.5212000767999
  0
VERTEX
  5
152
  8
DEFAULT
 10
795.2764423986537
 20
-127.4897562294682
 30
100.5212000767999
  0
VERTEX
  5
153
  8
DEFAULT
 10
795.285147411154
 20
-127.4672112419685
 30
100.5212000767999
  0
VERTEX
  5
154
  8
DEFAULT
 10
795.3015698020918
 20
-127.4211336329063
 30
100.5212000767999
  0
VERTEX
  5
155
  8
DEFAULT
 10
795.3167006795866
 20
-127.3737645104011
 30
100.5212000767999
  0
VERTEX
  5
156
  8
DEFAULT
 10
795.3305729454023
 20
-127.3251367762169
 30
100.5212000767999
  0
VERTEX
  5
157
  8
DEFAULT
 10
795.3432223623258
 20
-127.2752861931403
 30
100.5212000767999
  0
VERTEX
  5
158
  8
DEFAULT
 10
795.354687554167
 20
-127.2242513849815
 30
100.5212000767999
  0
VERTEX
  5
159
  8
DEFAULT
 10
795.3650100057584
 20
-127.172073836573
 30
100.5212000767999
  0
VERTEX
  5
15A
  8
DEFAULT
 10
795.374234062956
 20
-127.1187978937705
 30
100.5212000767999
  0
VERTEX
  5
15B
  8
DEFAULT
 10
795.3824069326383
 20
-127.0644707634528
 30
100.5212000767999
  0
VERTEX
  5
15C
  8
DEFAULT
 10
795.389578682707
 20
-127.0091425135215
 30
100.5212000767999
  0
VERTEX
  5
15D
  8
DEFAULT
 10
795.3958022420866
 20
-126.9528660729011
 30
100.5212000767999
  0
VERTEX
  5
15E
  8
DEFAULT
 10
795.4056308095915
 20
-126.837694640406
 30
100.5212000767999
  0
VERTEX
  5
15F
  8
DEFAULT
 10
795.4123732870084
 20
-126.719437117823
 30
100.5212000767999
  0
VERTEX
  5
160
  8
DEFAULT
 10
795.4187514608366
 20
-126.4758152916511
 30
100.5212000767999
  0
VERTEX
  5
161
  8
DEFAULT
 10
795.4196975057584
 20
-126.226761336573
 30
100.5212000767999
  0
VERTEX
  5
162
  8
DEFAULT
 10
795.4196975057584
 20
-120.226761336573
 30
100.5212000767999
  0
VERTEX
  5
163
  8
DEFAULT
 10
795.4187514608366
 20
-119.9777073814948
 30
100.5212000767999
  0
VERTEX
  5
164
  8
DEFAULT
 10
795.4123732870084
 20
-119.734085555323
 30
100.5212000767999
  0
VERTEX
  5
165
  8
DEFAULT
 10
795.4056308095915
 20
-119.61582803274
 30
100.5212000767999
  0
VERTEX
  5
166
  8
DEFAULT
 10
795.3958022420866
 20
-119.5006566002448
 30
100.5212000767999
  0
VERTEX
  5
167
  8
DEFAULT
 10
795.389578682707
 20
-119.4443801596244
 30
100.5212000767999
  0
VERTEX
  5
168
  8
DEFAULT
 10
795.3824069326383
 20
-119.3890519096931
 30
100.5212000767999
  0
VERTEX
  5
169
  8
DEFAULT
 10
795.374234062956
 20
-119.3347247793754
 30
100.5212000767999
  0
VERTEX
  5
16A
  8
DEFAULT
 10
795.3650100057584
 20
-119.281448836573
 30
100.5212000767999
  0
VERTEX
  5
16B
  8
DEFAULT
 10
795.354687554167
 20
-119.2292712881645
 30
100.5212000767999
  0
VERTEX
  5
16C
  8
DEFAULT
 10
795.3432223623258
 20
-119.1782364800056
 30
100.5212000767999
  0
VERTEX
  5
16D
  8
DEFAULT
 10
795.3305729454023
 20
-119.1283858969291
 30
100.5212000767999
  0
VERTEX
  5
16E
  8
DEFAULT
 10
795.3167006795866
 20
-119.0797581627449
 30
100.5212000767999
  0
VERTEX
  5
16F
  8
DEFAULT
 10
795.3015698020918
 20
-119.0323890402397
 30
100.5212000767999
  0
VERTEX
  5
170
  8
DEFAULT
 10
795.285147411154
 20
-118.9863114311775
 30
100.5212000767999
  0
VERTEX
  5
171
  8
DEFAULT
 10
795.2764423986537
 20
-118.9637664436778
 30
100.5212000767999
  0
VERTEX
  5
172
  8
DEFAULT
 10
795.2674034660322
 20
-118.9415553762992
 30
100.5212000767999
  0
VERTEX
  5
173
  8
DEFAULT
 10
795.2580273052317
 20
-118.9196815370997
 30
100.5212000767999
  0
VERTEX
  5
174
  8
DEFAULT
 10
795.2483107870084
 20
-118.898148055323
 30
100.5212000767999
  0
VERTEX
  5
175
  8
DEFAULT
 10
795.2382509609324
 20
-118.876957881399
 30
100.5212000767999
  0
VERTEX
  5
176
  8
DEFAULT
 10
795.2278450553877
 20
-118.8561137869438
 30
100.5212000767999
  0
VERTEX
  5
177
  8
DEFAULT
 10
795.2170904775721
 20
-118.8356183647593
 30
100.5212000767999
  0
VERTEX
  5
178
  8
DEFAULT
 10
795.2059848134977
 20
-118.8154740288337
 30
100.5212000767999
  0
VERTEX
  5
179
  8
DEFAULT
 10
795.1945258279902
 20
-118.7956830143412
 30
100.5212000767999
  0
VERTEX
  5
17A
  8
DEFAULT
 10
795.1827114646894
 20
-118.776247377642
 30
100.5212000767999
  0
VERTEX
  5
17B
  8
DEFAULT
 10
795.170539846049
 20
-118.7571689962824
 30
100.5212000767999
  0
VERTEX
  5
17C
  8
DEFAULT
 10
795.1580092733366
 20
-118.7384495689948
 30
100.5212000767999
  0
VERTEX
  5
17D
  8
DEFAULT
 10
795.1451182266337
 20
-118.7200906156977
 30
100.5212000767999
  0
VERTEX
  5
17E
  8
DEFAULT
 10
795.1318653648359
 20
-118.7020934774955
 30
100.5212000767999
  0
VERTEX
  5
17F
  8
DEFAULT
 10
795.1182495256526
 20
-118.6844593166788
 30
100.5212000767999
  0
VERTEX
  5
180
  8
DEFAULT
 10
795.1042697256071
 20
-118.6671891167243
 30
100.5212000767999
  0
VERTEX
  5
181
  8
DEFAULT
 10
795.0899251600367
 20
-118.6502836822947
 30
100.5212000767999
  0
VERTEX
  5
182
  8
DEFAULT
 10
795.0752152030927
 20
-118.6337436392387
 30
100.5212000767999
  0
VERTEX
  5
183
  8
DEFAULT
 10
795.0601394077403
 20
-118.6175694345911
 30
100.5212000767999
  0
VERTEX
  5
184
  8
DEFAULT
 10
795.0446975057584
 20
-118.601761336573
 30
100.5212000767999
  0
VERTEX
  5
185
  8
DEFAULT
 10
795.0288894077403
 20
-118.5863194345911
 30
100.5212000767999
  0
VERTEX
  5
186
  8
DEFAULT
 10
795.0127152030927
 20
-118.5712436392387
 30
100.5212000767999
  0
VERTEX
  5
187
  8
DEFAULT
 10
794.9961751600367
 20
-118.5565336822947
 30
100.5212000767999
  0
VERTEX
  5
188
  8
DEFAULT
 10
794.9792697256071
 20
-118.5421891167243
 30
100.5212000767999
  0
VERTEX
  5
189
  8
DEFAULT
 10
794.9619995256526
 20
-118.5282093166789
 30
100.5212000767999
  0
VERTEX
  5
18A
  8
DEFAULT
 10
794.9443653648359
 20
-118.5145934774955
 30
100.5212000767999
  0
VERTEX
  5
18B
  8
DEFAULT
 10
794.9263682266337
 20
-118.5013406156977
 30
100.5212000767999
  0
VERTEX
  5
18C
  8
DEFAULT
 10
794.9080092733366
 20
-118.4884495689949
 30
100.5212000767999
  0
VERTEX
  5
18D
  8
DEFAULT
 10
794.889289846049
 20
-118.4759189962824
 30
100.5212000767999
  0
VERTEX
  5
18E
  8
DEFAULT
 10
794.8702114646894
 20
-118.463747377642
 30
100.5212000767999
  0
VERTEX
  5
18F
  8
DEFAULT
 10
794.8507758279902
 20
-118.4519330143412
 30
100.5212000767999
  0
VERTEX
  5
190
  8
DEFAULT
 10
794.8309848134977
 20
-118.4404740288337
 30
100.5212000767999
  0
VERTEX
  5
191
  8
DEFAULT
 10
794.8108404775721
 20
-118.4293683647593
 30
100.5212000767999
  0
VERTEX
  5
192
  8
DEFAULT
 10
794.7903450553877
 20
-118.4186137869438
 30
100.5212000767999
  0
VERTEX
  5
193
  8
DEFAULT
 10
794.7695009609324
 20
-118.408207881399
 30
100.5212000767999
  0
VERTEX
  5
194
  8
DEFAULT
 10
794.7483107870086
 20
-118.398148055323
 30
100.5212000767999
  0
VERTEX
  5
195
  8
DEFAULT
 10
794.726777305232
 20
-118.3884315370997
 30
100.5212000767999
  0
VERTEX
  5
196
  8
DEFAULT
 10
794.7049034660324
 20
-118.3790553762992
 30
100.5212000767999
  0
VERTEX
  5
197
  8
DEFAULT
 10
794.6826923986539
 20
-118.3700164436777
 30
100.5212000767999
  0
VERTEX
  5
198
  8
DEFAULT
 10
794.6601474111542
 20
-118.3613114311775
 30
100.5212000767999
  0
VERTEX
  5
199
  8
DEFAULT
 10
794.614069802092
 20
-118.3448890402397
 30
100.5212000767999
  0
VERTEX
  5
19A
  8
DEFAULT
 10
794.5667006795868
 20
-118.3297581627448
 30
100.5212000767999
  0
VERTEX
  5
19B
  8
DEFAULT
 10
794.5180729454025
 20
-118.3158858969291
 30
100.5212000767999
  0
VERTEX
  5
19C
  8
DEFAULT
 10
794.4682223623261
 20
-118.3032364800056
 30
100.5212000767999
  0
VERTEX
  5
19D
  8
DEFAULT
 10
794.4171875541672
 20
-118.2917712881645
 30
100.5212000767999
  0
VERTEX
  5
19E
  8
DEFAULT
 10
794.3650100057587
 20
-118.281448836573
 30
100.5212000767999
  0
VERTEX
  5
19F
  8
DEFAULT
 10
794.3117340629562
 20
-118.2722247793754
 30
100.5212000767999
  0
VERTEX
  5
1A0
  8
DEFAULT
 10
794.2574069326384
 20
-118.2640519096931
 30
100.5212000767999
  0
VERTEX
  5
1A1
  8
DEFAULT
 10
794.202078682707
 20
-118.2568801596244
 30
100.5212000767999
  0
VERTEX
  5
1A2
  8
DEFAULT
 10
794.1458022420867
 20
-118.2506566002448
 30
100.5212000767999
  0
VERTEX
  5
1A3
  8
DEFAULT
 10
794.0306308095915
 20
-118.24082803274
 30
100.5212000767999
  0
VERTEX
  5
1A4
  8
DEFAULT
 10
793.9123732870084
 20
-118.234085555323
 30
100.5212000767999
  0
VERTEX
  5
1A5
  8
DEFAULT
 10
793.6687514608366
 20
-118.2277073814948
 30
100.5212000767999
  0
VERTEX
  5
1A6
  8
DEFAULT
 10
793.4196975057584
 20
-118.226761336573
 30
100.5212000767999
  0
VERTEX
  5
1A7
  8
DEFAULT
 10
787.4196975057584
 20
-118.226761336573
 30
100.5212000767999
  0
VERTEX
  5
1A8
  8
DEFAULT
 10
787.4196975057584
 20
-101.726761336573
 30
100.5212000767999
  0
VERTEX
  5
1A9
  8
DEFAULT
 10
770.2098487528792
 20
-101.726761336573
 30
100.5212000767999
  0
VERTEX
  5
1AA
  8
DEFAULT
 10
770.2098487528792
 20
-104.726761336573
 30
100.5212000767999
  0
VERTEX
  5
1AB
  8
DEFAULT
 10
757.6295462586376
 20
-104.726761336573
 30
100.5212000767999
  0
VERTEX
  5
1AC
  8
DEFAULT
 10
757.6295462586376
 20
-101.726761336573
 30
100.5212000767999
  0
VERTEX
  5
1AD
  8
DEFAULT
 10
740.4196975057584
 20
-101.726761336573
 30
100.5212000767999
  0
VERTEX
  5
1AE
  8
DEFAULT
 10
740.4196975057584
 20
-118.9080634846474
 30
100.5212000767999
  0
VERTEX
  5
1AF
  8
DEFAULT
 10
737.4196975057584
 20
-118.9080634846474
 30
100.5212000767999
  0
VERTEX
  5
1B0
  8
DEFAULT
 10
737.4196975057584
 20
-130.5454591884985
 30
100.5212000767999
  0
VERTEX
  5
1B1
  8
DEFAULT
 10
740.4196975057583
 20
-130.5454591884985
 30
100.5212000767999
  0
VERTEX
  5
1B2
  8
DEFAULT
 10
740.4196975057583
 20
-140.726761336573
 30
100.5212000767999
  0
VERTEX
  5
1B3
  8
DEFAULT
 10
787.4196975057584
 20
-140.726761336573
 30
100.5212000767999
  0
VERTEX
  5
1B4
  8
DEFAULT
 10
787.4196975057584
 20
-128.226761336573
 30
100.5212000767999
  0
SEQEND
  5
1B5
  8
DEFAULT
  0
POLYLINE
  5
1B6
  8
DEFAULT
 66
     1
 10
0.0
 20
0.0
 30
100.5212000767999
 70
     1
  0
VERTEX
  5
1B7
  8
DEFAULT
 10
759.4196975057583
 20
-48.00000000000007
 30
100.5212000767999
  0
VERTEX
  5
1B8
  8
DEFAULT
 10
747.0
 20
-48.00000000000007
 30
100.5212000767999
  0
VERTEX
  5
1B9
  8
DEFAULT
 10
747.0
 20
-45.0
 30
100.5212000767999
  0
VERTEX
  5
1BA
  8
DEFAULT
 10
740.4196975057584
 20
-45.0
 30
100.5212000767999
  0
VERTEX
  5
1BB
  8
DEFAULT
 10
740.4196975057584
 20
-55.68130214807451
 30
100.5212000767999
  0
VERTEX
  5
1BC
  8
DEFAULT
 10
737.4196975057584
 20
-55.68130214807451
 30
100.5212000767999
  0
VERTEX
  5
1BD
  8
DEFAULT
 10
737.4196975057584
 20
-67.31869785192555
 30
100.5212000767999
  0
VERTEX
  5
1BE
  8
DEFAULT
 10
740.4196975057584
 20
-67.31869785192555
 30
100.5212000767999
  0
VERTEX
  5
1BF
  8
DEFAULT
 10
740.4196975057584
 20
-78.68130214807451
 30
100.5212000767999
  0
VERTEX
  5
1C0
  8
DEFAULT
 10
737.4196975057584
 20
-78.68130214807451
 30
100.5212000767999
  0
VERTEX
  5
1C1
  8
DEFAULT
 10
737.4196975057584
 20
-90.31869785192555
 30
100.5212000767999
  0
VERTEX
  5
1C2
  8
DEFAULT
 10
740.4196975057584
 20
-90.31869785192555
 30
100.5212000767999
  0
VERTEX
  5
1C3
  8
DEFAULT
 10
740.4196975057584
 20
-95.99999999999997
 30
100.5212000767999
  0
VERTEX
  5
1C4
  8
DEFAULT
 10
758.0
 20
-95.99999999999997
 30
100.5212000767999
  0
VERTEX
  5
1C5
  8
DEFAULT
 10
758.0
 20
-99.0
 30
100.5212000767999
  0
VERTEX
  5
1C6
  8
DEFAULT
 10
769.8393950115168
 20
-99.0
 30
100.5212000767999
  0
VERTEX
  5
1C7
  8
DEFAULT
 10
769.8393950115168
 20
-95.99999999999997
 30
100.5212000767999
  0
VERTEX
  5
1C8
  8
DEFAULT
 10
787.4196975057584
 20
-96.0
 30
100.5212000767999
  0
VERTEX
  5
1C9
  8
DEFAULT
 10
787.4196975057584
 20
-88.31869785192555
 30
100.5212000767999
  0
VERTEX
  5
1CA
  8
DEFAULT
 10
790.4196975057584
 20
-88.31869785192555
 30
100.5212000767999
  0
VERTEX
  5
1CB
  8
DEFAULT
 10
790.4196975057584
 20
-76.68130214807451
 30
100.5212000767999
  0
VERTEX
  5
1CC
  8
DEFAULT
 10
787.4196975057584
 20
-76.68130214807451
 30
100.5212000767999
  0
VERTEX
  5
1CD
  8
DEFAULT
 10
787.4196975057584
 20
-66.31869785192556
 30
100.5212000767999
  0
VERTEX
  5
1CE
  8
DEFAULT
 10
790.4196975057584
 20
-66.31869785192556
 30
100.5212000767999
  0
VERTEX
  5
1CF
  8
DEFAULT
 10
790.4196975057584
 20
-54.68130214807452
 30
100.5212000767999
  0
VERTEX
  5
1D0
  8
DEFAULT
 10
787.4196975057584
 20
-54.68130214807452
 30
100.5212000767999
  0
VERTEX
  5
1D1
  8
DEFAULT
 10
787.4196975057584
 20
-45.0000000000001
 30
100.5212000767999
  0
VERTEX
  5
1D2
  8
DEFAULT
 10
781.4196975057583
 20
-45.00000000000009
 30
100.5212000767999
  0
VERTEX
  5
1D3
  8
DEFAULT
 10
781.4196975057583
 20
-48.00000000000007
 30
100.5212000767999
  0
VERTEX
  5
1D4
  8
DEFAULT
 10
769.0
 20
-48.00000000000007
 30
100.5212000767999
  0
VERTEX
  5
1D5
  8
DEFAULT
 10
769.0
 20
-45.00000000000006
 30
100.5212000767999
  0
VERTEX
  5
1D6
  8
DEFAULT
 10
759.4196975057583
 20
-45.00000000000003
 30
100.5212000767999
  0
SEQEND
  5
1D7
  8
DEFAULT
  0
CIRCLE
  5
1D8
  8
DEFAULT
 10
751.3226988738126
 20
-32.12676133657294
 30
86.52120007679997
 40
1.5
  0
CIRCLE
  5
1D9
  8
DEFAULT
 10
775.3226988738126
 20
-32.12676133657294
 30
86.52120007679997
 40
1.5
  0
POLYLINE
  5
1DA
  8
DEFAULT
 66
     1
 10
0.0
 20
0.0
 30
86.52120007679997
 70
     1
  0
VERTEX
  5
1DB
  8
DEFAULT
 10
757.6295462586376
 20
-40.22676133657296
 30
86.52120007679997
  0
VERTEX
  5
1DC
  8
DEFAULT
 10
757.6295462586377
 20
-37.22676133657296
 30
86.52120007679997
  0
VERTEX
  5
1DD
  8
DEFAULT
 10
740.4196975057584
 20
-37.22676133657296
 30
86.52120007679997
  0
VERTEX
  5
1DE
  8
DEFAULT
 10
740.4196975057583
 20
-24.0
 30
86.52120007679997
  0
VERTEX
  5
1DF
  8
DEFAULT
 10
758.0
 20
-24.0
 30
86.52120007679997
  0
VERTEX
  5
1E0
  8
DEFAULT
 10
758.0
 20
-27.0
 30
86.52120007679997
  0
VERTEX
  5
1E1
  8
DEFAULT
 10
769.8393950115168
 20
-27.0
 30
86.52120007679997
  0
VERTEX
  5
1E2
  8
DEFAULT
 10
769.8393950115168
 20
-24.0
 30
86.52120007679997
  0
VERTEX
  5
1E3
  8
DEFAULT
 10
787.4196975057584
 20
-24.0
 30
86.52120007679997
  0
VERTEX
  5
1E4
  8
DEFAULT
 10
787.4196975057584
 20
-37.22676133657299
 30
86.52120007679997
  0
VERTEX
  5
1E5
  8
DEFAULT
 10
770.2098487528792
 20
-37.22676133657296
 30
86.52120007679997
  0
VERTEX
  5
1E6
  8
DEFAULT
 10
770.2098487528792
 20
-40.22676133657296
 30
86.52120007679997
  0
SEQEND
  5
1E7
  8
DEFAULT
  0
POLYLINE
  5
1E8
  8
DEFAULT
 66
     1
 10
0.0
 20
0.0
 30
86.52120007679997
 70
     1
  0
VERTEX
  5
1E9
  8
DEFAULT
 10
757.6295462586376
 20
-160.226761336573
 30
86.52120007679997
  0
VERTEX
  5
1EA
  8
DEFAULT
 10
757.6295462586377
 20
-157.226761336573
 30
86.52120007679997
  0
VERTEX
  5
1EB
  8
DEFAULT
 10
740.4196975057584
 20
-157.226761336573
 30
86.52120007679997
  0
VERTEX
  5
1EC
  8
DEFAULT
 10
740.4196975057583
 20
-144.0
 30
86.52120007679997
  0
VERTEX
  5
1ED
  8
DEFAULT
 10
758.0
 20
-144.0
 30
86.52120007679997
  0
VERTEX
  5
1EE
  8
DEFAULT
 10
758.0
 20
-147.0
 30
86.52120007679997
  0
VERTEX
  5
1EF
  8
DEFAULT
 10
769.8393950115168
 20
-147.0
 30
86.52120007679997
  0
VERTEX
  5
1F0
  8
DEFAULT
 10
769.8393950115168
 20
-144.0
 30
86.52120007679997
  0
VERTEX
  5
1F1
  8
DEFAULT
 10
787.4196975057584
 20
-144.0
 30
86.52120007679997
  0
VERTEX
  5
1F2
  8
DEFAULT
 10
787.4196975057584
 20
-157.226761336573
 30
86.52120007679997
  0
VERTEX
  5
1F3
  8
DEFAULT
 10
770.2098487528792
 20
-157.226761336573
 30
86.52120007679997
  0
VERTEX
  5
1F4
  8
DEFAULT
 10
770.2098487528792
 20
-160.226761336573
 30
86.52120007679997
  0
SEQEND
  5
1F5
  8
DEFAULT
  0
CIRCLE
  5
1F6
  8
DEFAULT
 10
775.3226988738126
 20
-152.1267613365729
 30
86.52120007679997
 40
1.5
  0
CIRCLE
  5
1F7
  8
DEFAULT
 10
751.3226988738126
 20
-152.1267613365729
 30
86.52120007679997
 40
1.5
  0
POLYLINE
  5
1F8
  8
DEFAULT
 66
     1
 10
0.0
 20
0.0
 30
100.5212000767999
 70
     1
  0
VERTEX
  5
1F9
  8
DEFAULT
 10
692.4196975057583
 20
68.00000000000006
 30
100.5212000767999
  0
VERTEX
  5
1FA
  8
DEFAULT
 10
692.4211165731413
 20
68.37358093261727
 30
100.5212000767999
  0
VERTEX
  5
1FB
  8
DEFAULT
 10
692.4306838338833
 20
68.73901367187509
 30
100.5212000767999
  0
VERTEX
  5
1FC
  8
DEFAULT
 10
692.4407975500087
 20
68.9163999557496
 30
100.5212000767999
  0
VERTEX
  5
1FD
  8
DEFAULT
 10
692.4555404012661
 20
69.08915710449227
 30
100.5212000767999
  0
VERTEX
  5
1FE
  8
DEFAULT
 10
692.4648757403356
 20
69.1735717654229
 30
100.5212000767999
  0
VERTEX
  5
1FF
  8
DEFAULT
 10
692.4756333654384
 20
69.25656414031991
 30
100.5212000767999
  0
VERTEX
  5
200
  8
DEFAULT
 10
692.4878926699619
 20
69.33805483579644
 30
100.5212000767999
  0
VERTEX
  5
201
  8
DEFAULT
 10
692.5017287557583
 20
69.41796875000009
 30
100.5212000767999
  0
VERTEX
  5
202
  8
DEFAULT
 10
692.5172124331456
 20
69.49623507261285
 30
100.5212000767999
  0
VERTEX
  5
203
  8
DEFAULT
 10
692.5344102209073
 20
69.57278728485116
 30
100.5212000767999
  0
VERTEX
  5
204
  8
DEFAULT
 10
692.5533843462924
 20
69.64756315946588
 30
100.5212000767999
  0
VERTEX
  5
205
  8
DEFAULT
 10
692.574192745016
 20
69.72050476074227
 30
100.5212000767999
  0
VERTEX
  5
206
  8
DEFAULT
 10
692.5968890612583
 20
69.79155844450004
 30
100.5212000767999
  0
VERTEX
  5
207
  8
DEFAULT
 10
692.621522647665
 20
69.86067485809333
 30
100.5212000767999
  0
VERTEX
  5
208
  8
DEFAULT
 10
692.6345801664154
 20
69.8944923393429
 30
100.5212000767999
  0
VERTEX
  5
209
  8
DEFAULT
 10
692.6481385653476
 20
69.92780894041067
 30
100.5212000767999
  0
VERTEX
  5
20A
  8
DEFAULT
 10
692.6622028065483
 20
69.96061969920999
 30
100.5212000767999
  0
VERTEX
  5
20B
  8
DEFAULT
 10
692.6767775838832
 20
69.99291992187506
 30
100.5212000767999
  0
VERTEX
  5
20C
  8
DEFAULT
 10
692.6918673229973
 20
70.02470518276101
 30
100.5212000767999
  0
VERTEX
  5
20D
  8
DEFAULT
 10
692.7074761813144
 20
70.05597132444387
 30
100.5212000767999
  0
VERTEX
  5
20E
  8
DEFAULT
 10
692.7236080480377
 20
70.08671445772057
 30
100.5212000767999
  0
VERTEX
  5
20F
  8
DEFAULT
 10
692.7402665441493
 20
70.11693096160894
 30
100.5212000767999
  0
VERTEX
  5
210
  8
DEFAULT
 10
692.7574550224106
 20
70.14661748334771
 30
100.5212000767999
  0
VERTEX
  5
211
  8
DEFAULT
 10
692.7751765673619
 20
70.17577093839651
 30
100.5212000767999
  0
VERTEX
  5
212
  8
DEFAULT
 10
692.7934339953225
 20
70.20438851043588
 30
100.5212000767999
  0
VERTEX
  5
213
  8
DEFAULT
 10
692.8122298543913
 20
70.23246765136724
 30
100.5212000767999
  0
VERTEX
  5
214
  8
DEFAULT
 10
692.8315664244456
 20
70.26000608131295
 30
100.5212000767999
  0
VERTEX
  5
215
  8
DEFAULT
 10
692.8514457171423
 20
70.28700178861624
 30
100.5212000767999
  0
VERTEX
  5
216
  8
DEFAULT
 10
692.8718694759173
 20
70.31345302984123
 30
100.5212000767999
  0
VERTEX
  5
217
  8
DEFAULT
 10
692.8928391759854
 20
70.33935832977299
 30
100.5212000767999
  0
VERTEX
  5
218
  8
DEFAULT
 10
692.9143560243408
 20
70.36471648141745
 30
100.5212000767999
  0
VERTEX
  5
219
  8
DEFAULT
 10
692.9364209597568
 20
70.38952654600146
 30
100.5212000767999
  0
VERTEX
  5
21A
  8
DEFAULT
 10
692.9590346527855
 20
70.41378785297277
 30
100.5212000767999
  0
VERTEX
  5
21B
  8
DEFAULT
 10
692.9821975057583
 20
70.43750000000003
 30
100.5212000767999
  0
VERTEX
  5
21C
  8
DEFAULT
 10
693.0059096527856
 20
70.46066285297277
 30
100.5212000767999
  0
VERTEX
  5
21D
  8
DEFAULT
 10
693.030170959757
 20
70.48327654600145
 30
100.5212000767999
  0
VERTEX
  5
21E
  8
DEFAULT
 10
693.0549810243408
 20
70.50534148141742
 30
100.5212000767999
  0
VERTEX
  5
21F
  8
DEFAULT
 10
693.0803391759853
 20
70.52685832977296
 30
100.5212000767999
  0
VERTEX
  5
220
  8
DEFAULT
 10
693.106244475917
 20
70.5478280298412
 30
100.5212000767999
  0
VERTEX
  5
221
  8
DEFAULT
 10
693.132695717142
 20
70.5682517886162
 30
100.5212000767999
  0
VERTEX
  5
222
  8
DEFAULT
 10
693.1596914244453
 20
70.5881310813129
 30
100.5212000767999
  0
VERTEX
  5
223
  8
DEFAULT
 10
693.187229854391
 20
70.60746765136719
 30
100.5212000767999
  0
VERTEX
  5
224
  8
DEFAULT
 10
693.2153089953224
 20
70.62626351043582
 30
100.5212000767999
  0
VERTEX
  5
225
  8
DEFAULT
 10
693.2439265673618
 20
70.64452093839645
 30
100.5212000767999
  0
VERTEX
  5
226
  8
DEFAULT
 10
693.2730800224106
 20
70.66224248334765
 30
100.5212000767999
  0
VERTEX
  5
227
  8
DEFAULT
 10
693.3027665441493
 20
70.67943096160889
 30
100.5212000767999
  0
VERTEX
  5
228
  8
DEFAULT
 10
693.3329830480377
 20
70.69608945772052
 30
100.5212000767999
  0
VERTEX
  5
229
  8
DEFAULT
 10
693.3637261813144
 20
70.71222132444382
 30
100.5212000767999
  0
VERTEX
  5
22A
  8
DEFAULT
 10
693.3949923229973
 20
70.72783018276095
 30
100.5212000767999
  0
VERTEX
  5
22B
  8
DEFAULT
 10
693.4267775838833
 20
70.742919921875
 30
100.5212000767999
  0
VERTEX
  5
22C
  8
DEFAULT
 10
693.4590778065485
 20
70.75749469920993
 30
100.5212000767999
  0
VERTEX
  5
22D
  8
DEFAULT
 10
693.4918885653478
 20
70.7715589404106
 30
100.5212000767999
  0
VERTEX
  5
22E
  8
DEFAULT
 10
693.5252051664156
 20
70.78511733934282
 30
100.5212000767999
  0
VERTEX
  5
22F
  8
DEFAULT
 10
693.5590226476652
 20
70.79817485809325
 30
100.5212000767999
  0
VERTEX
  5
230
  8
DEFAULT
 10
693.6281390612585
 20
70.82280844449997
 30
100.5212000767999
  0
VERTEX
  5
231
  8
DEFAULT
 10
693.6991927450163
 20
70.84550476074217
 30
100.5212000767999
  0
VERTEX
  5
232
  8
DEFAULT
 10
693.7721343462927
 20
70.86631315946576
 30
100.5212000767999
  0
VERTEX
  5
233
  8
DEFAULT
 10
693.8469102209074
 20
70.88528728485105
 30
100.5212000767999
  0
VERTEX
  5
234
  8
DEFAULT
 10
693.9234624331457
 20
70.90248507261273
 30
100.5212000767999
  0
VERTEX
  5
235
  8
DEFAULT
 10
694.0017287557584
 20
70.91796874999996
 30
100.5212000767999
  0
VERTEX
  5
236
  8
DEFAULT
 10
694.0816426699621
 20
70.9318048357963
 30
100.5212000767999
  0
VERTEX
  5
237
  8
DEFAULT
 10
694.1631333654385
 20
70.94406414031977
 30
100.5212000767999
  0
VERTEX
  5
238
  8
DEFAULT
 10
694.2461257403354
 20
70.95482176542275
 30
100.5212000767999
  0
VERTEX
  5
239
  8
DEFAULT
 10
694.3305404012661
 20
70.96415710449213
 30
100.5212000767999
  0
VERTEX
  5
23A
  8
DEFAULT
 10
694.5032975500087
 20
70.97889995574945
 30
100.5212000767999
  0
VERTEX
  5
23B
  8
DEFAULT
 10
694.6806838338832
 20
70.98901367187494
 30
100.5212000767999
  0
VERTEX
  5
23C
  8
DEFAULT
 10
695.046116573141
 20
70.99858093261713
 30
100.5212000767999
  0
VERTEX
  5
23D
  8
DEFAULT
 10
695.4196975057583
 20
70.99999999999996
 30
100.5212000767999
  0
VERTEX
  5
23E
  8
DEFAULT
 10
728.4196975057581
 20
71.00000000000003
 30
100.5212000767999
  0
VERTEX
  5
23F
  8
DEFAULT
 10
728.7932784383754
 20
70.99858093261722
 30
100.5212000767999
  0
VERTEX
  5
240
  8
DEFAULT
 10
729.1587111776332
 20
70.98901367187504
 30
100.5212000767999
  0
VERTEX
  5
241
  8
DEFAULT
 10
729.3360974615077
 20
70.97889995574957
 30
100.5212000767999
  0
VERTEX
  5
242
  8
DEFAULT
 10
729.5088546102503
 20
70.96415710449224
 30
100.5212000767999
  0
VERTEX
  5
243
  8
DEFAULT
 10
729.593269271181
 20
70.95482176542286
 30
100.5212000767999
  0
VERTEX
  5
244
  8
DEFAULT
 10
729.6762616460779
 20
70.94406414031988
 30
100.5212000767999
  0
VERTEX
  5
245
  8
DEFAULT
 10
729.7577523415544
 20
70.93180483579641
 30
100.5212000767999
  0
VERTEX
  5
246
  8
DEFAULT
 10
729.837666255758
 20
70.91796875000007
 30
100.5212000767999
  0
VERTEX
  5
247
  8
DEFAULT
 10
729.9159325783708
 20
70.90248507261285
 30
100.5212000767999
  0
VERTEX
  5
248
  8
DEFAULT
 10
729.9924847906091
 20
70.88528728485116
 30
100.5212000767999
  0
VERTEX
  5
249
  8
DEFAULT
 10
730.0672606652238
 20
70.86631315946588
 30
100.5212000767999
  0
VERTEX
  5
24A
  8
DEFAULT
 10
730.1402022665002
 20
70.84550476074229
 30
100.5212000767999
  0
VERTEX
  5
24B
  8
DEFAULT
 10
730.211255950258
 20
70.82280844450008
 30
100.5212000767999
  0
VERTEX
  5
24C
  8
DEFAULT
 10
730.2803723638513
 20
70.79817485809338
 30
100.5212000767999
  0
VERTEX
  5
24D
  8
DEFAULT
 10
730.3141898451008
 20
70.78511733934295
 30
100.5212000767999
  0
VERTEX
  5
24E
  8
DEFAULT
 10
730.3475064461686
 20
70.77155894041074
 30
100.5212000767999
  0
VERTEX
  5
24F
  8
DEFAULT
 10
730.3803172049679
 20
70.75749469921007
 30
100.5212000767999
  0
VERTEX
  5
250
  8
DEFAULT
 10
730.4126174276331
 20
70.74291992187514
 30
100.5212000767999
  0
VERTEX
  5
251
  8
DEFAULT
 10
730.4444026885192
 20
70.7278301827611
 30
100.5212000767999
  0
VERTEX
  5
252
  8
DEFAULT
 10
730.475668830202
 20
70.71222132444396
 30
100.5212000767999
  0
VERTEX
  5
253
  8
DEFAULT
 10
730.5064119634787
 20
70.69608945772067
 30
100.5212000767999
  0
VERTEX
  5
254
  8
DEFAULT
 10
730.5366284673671
 20
70.67943096160906
 30
100.5212000767999
  0
VERTEX
  5
255
  8
DEFAULT
 10
730.5663149891059
 20
70.66224248334782
 30
100.5212000767999
  0
VERTEX
  5
256
  8
DEFAULT
 10
730.5954684441547
 20
70.64452093839662
 30
100.5212000767999
  0
VERTEX
  5
257
  8
DEFAULT
 10
730.624086016194
 20
70.62626351043599
 30
100.5212000767999
  0
VERTEX
  5
258
  8
DEFAULT
 10
730.6521651571254
 20
70.60746765136736
 30
100.5212000767999
  0
VERTEX
  5
259
  8
DEFAULT
 10
730.6797035870711
 20
70.58813108131307
 30
100.5212000767999
  0
VERTEX
  5
25A
  8
DEFAULT
 10
730.7066992943744
 20
70.56825178861637
 30
100.5212000767999
  0
VERTEX
  5
25B
  8
DEFAULT
 10
730.7331505355994
 20
70.54782802984137
 30
100.5212000767999
  0
VERTEX
  5
25C
  8
DEFAULT
 10
730.7590558355312
 20
70.52685832977315
 30
100.5212000767999
  0
VERTEX
  5
25D
  8
DEFAULT
 10
730.7844139871756
 20
70.50534148141762
 30
100.5212000767999
  0
VERTEX
  5
25E
  8
DEFAULT
 10
730.8092240517597
 20
70.48327654600163
 30
100.5212000767999
  0
VERTEX
  5
25F
  8
DEFAULT
 10
730.833485358731
 20
70.46066285297296
 30
100.5212000767999
  0
VERTEX
  5
260
  8
DEFAULT
 10
730.8571975057582
 20
70.43750000000021
 30
100.5212000767999
  0
VERTEX
  5
261
  8
DEFAULT
 10
730.880360358731
 20
70.41378785297297
 30
100.5212000767999
  0
VERTEX
  5
262
  8
DEFAULT
 10
730.9029740517597
 20
70.38952654600166
 30
100.5212000767999
  0
VERTEX
  5
263
  8
DEFAULT
 10
730.9250389871756
 20
70.36471648141764
 30
100.5212000767999
  0
VERTEX
  5
264
  8
DEFAULT
 10
730.9465558355312
 20
70.33935832977319
 30
100.5212000767999
  0
VERTEX
  5
265
  8
DEFAULT
 10
730.9675255355994
 20
70.31345302984143
 30
100.5212000767999
  0
VERTEX
  5
266
  8
DEFAULT
 10
730.9879492943744
 20
70.28700178861644
 30
100.5212000767999
  0
VERTEX
  5
267
  8
DEFAULT
 10
731.0078285870711
 20
70.26000608131315
 30
100.5212000767999
  0
VERTEX
  5
268
  8
DEFAULT
 10
731.0271651571254
 20
70.23246765136744
 30
100.5212000767999
  0
VERTEX
  5
269
  8
DEFAULT
 10
731.0459610161942
 20
70.20438851043608
 30
100.5212000767999
  0
VERTEX
  5
26A
  8
DEFAULT
 10
731.0642184441548
 20
70.17577093839671
 30
100.5212000767999
  0
VERTEX
  5
26B
  8
DEFAULT
 10
731.0819399891061
 20
70.14661748334794
 30
100.5212000767999
  0
VERTEX
  5
26C
  8
DEFAULT
 10
731.0991284673673
 20
70.11693096160917
 30
100.5212000767999
  0
VERTEX
  5
26D
  8
DEFAULT
 10
731.115786963479
 20
70.0867144577208
 30
100.5212000767999
  0
VERTEX
  5
26E
  8
DEFAULT
 10
731.1319188302023
 20
70.0559713244441
 30
100.5212000767999
  0
VERTEX
  5
26F
  8
DEFAULT
 10
731.1475276885194
 20
70.02470518276124
 30
100.5212000767999
  0
VERTEX
  5
270
  8
DEFAULT
 10
731.1626174276334
 20
69.99291992187528
 30
100.5212000767999
  0
VERTEX
  5
271
  8
DEFAULT
 10
731.1771922049684
 20
69.96061969921021
 30
100.5212000767999
  0
VERTEX
  5
272
  8
DEFAULT
 10
731.1912564461691
 20
69.9278089404109
 30
100.5212000767999
  0
VERTEX
  5
273
  8
DEFAULT
 10
731.2048148451013
 20
69.89449233934312
 30
100.5212000767999
  0
VERTEX
  5
274
  8
DEFAULT
 10
731.2178723638517
 20
69.86067485809355
 30
100.5212000767999
  0
VERTEX
  5
275
  8
DEFAULT
 10
731.2425059502584
 20
69.79155844450025
 30
100.5212000767999
  0
VERTEX
  5
276
  8
DEFAULT
 10
731.2652022665006
 20
69.72050476074247
 30
100.5212000767999
  0
VERTEX
  5
277
  8
DEFAULT
 10
731.2860106652242
 20
69.64756315946607
 30
100.5212000767999
  0
VERTEX
  5
278
  8
DEFAULT
 10
731.3049847906095
 20
69.57278728485136
 30
100.5212000767999
  0
VERTEX
  5
279
  8
DEFAULT
 10
731.3221825783712
 20
69.49623507261305
 30
100.5212000767999
  0
VERTEX
  5
27A
  8
DEFAULT
 10
731.3376662557584
 20
69.41796875000028
 30
100.5212000767999
  0
VERTEX
  5
27B
  8
DEFAULT
 10
731.3515023415548
 20
69.33805483579664
 30
100.5212000767999
  0
VERTEX
  5
27C
  8
DEFAULT
 10
731.3637616460783
 20
69.25656414032011
 30
100.5212000767999
  0
VERTEX
  5
27D
  8
DEFAULT
 10
731.3745192711813
 20
69.17357176542308
 30
100.5212000767999
  0
VERTEX
  5
27E
  8
DEFAULT
 10
731.3838546102506
 20
69.08915710449244
 30
100.5212000767999
  0
VERTEX
  5
27F
  8
DEFAULT
 10
731.398597461508
 20
68.91639995574974
 30
100.5212000767999
  0
VERTEX
  5
280
  8
DEFAULT
 10
731.4087111776334
 20
68.7390136718752
 30
100.5212000767999
  0
VERTEX
  5
281
  8
DEFAULT
 10
731.4182784383756
 20
68.37358093261733
 30
100.5212000767999
  0
VERTEX
  5
282
  8
DEFAULT
 10
731.4196975057583
 20
68.00000000000009
 30
100.5212000767999
  0
VERTEX
  5
283
  8
DEFAULT
 10
731.4196975057583
 20
-144.0
 30
100.5212000767999
  0
VERTEX
  5
284
  8
DEFAULT
 10
731.4182784383754
 20
-144.3735809326172
 30
100.5212000767999
  0
VERTEX
  5
285
  8
DEFAULT
 10
731.4087111776333
 20
-144.739013671875
 30
100.5212000767999
  0
VERTEX
  5
286
  8
DEFAULT
 10
731.398597461508
 20
-144.9163999557495
 30
100.5212000767999
  0
VERTEX
  5
287
  8
DEFAULT
 10
731.3838546102505
 20
-145.0891571044922
 30
100.5212000767999
  0
VERTEX
  5
288
  8
DEFAULT
 10
731.374519271181
 20
-145.1735717654228
 30
100.5212000767999
  0
VERTEX
  5
289
  8
DEFAULT
 10
731.3637616460783
 20
-145.2565641403199
 30
100.5212000767999
  0
VERTEX
  5
28A
  8
DEFAULT
 10
731.3515023415548
 20
-145.3380548357964
 30
100.5212000767999
  0
VERTEX
  5
28B
  8
DEFAULT
 10
731.3376662557583
 20
-145.4179687500001
 30
100.5212000767999
  0
VERTEX
  5
28C
  8
DEFAULT
 10
731.3221825783711
 20
-145.4962350726128
 30
100.5212000767999
  0
VERTEX
  5
28D
  8
DEFAULT
 10
731.3049847906094
 20
-145.5727872848511
 30
100.5212000767999
  0
VERTEX
  5
28E
  8
DEFAULT
 10
731.2860106652242
 20
-145.6475631594658
 30
100.5212000767999
  0
VERTEX
  5
28F
  8
DEFAULT
 10
731.2652022665006
 20
-145.7205047607422
 30
100.5212000767999
  0
VERTEX
  5
290
  8
DEFAULT
 10
731.2425059502584
 20
-145.7915584445
 30
100.5212000767999
  0
VERTEX
  5
291
  8
DEFAULT
 10
731.2178723638517
 20
-145.8606748580933
 30
100.5212000767999
  0
VERTEX
  5
292
  8
DEFAULT
 10
731.2048148451013
 20
-145.8944923393429
 30
100.5212000767999
  0
VERTEX
  5
293
  8
DEFAULT
 10
731.1912564461691
 20
-145.9278089404107
 30
100.5212000767999
  0
VERTEX
  5
294
  8
DEFAULT
 10
731.1771922049684
 20
-145.96061969921
 30
100.5212000767999
  0
VERTEX
  5
295
  8
DEFAULT
 10
731.1626174276334
 20
-145.9929199218751
 30
100.5212000767999
  0
VERTEX
  5
296
  8
DEFAULT
 10
731.1475276885194
 20
-146.024705182761
 30
100.5212000767999
  0
VERTEX
  5
297
  8
DEFAULT
 10
731.1319188302023
 20
-146.0559713244439
 30
100.5212000767999
  0
VERTEX
  5
298
  8
DEFAULT
 10
731.115786963479
 20
-146.0867144577206
 30
100.5212000767999
  0
VERTEX
  5
299
  8
DEFAULT
 10
731.0991284673673
 20
-146.1169309616089
 30
100.5212000767999
  0
VERTEX
  5
29A
  8
DEFAULT
 10
731.0819399891061
 20
-146.1466174833477
 30
100.5212000767999
  0
VERTEX
  5
29B
  8
DEFAULT
 10
731.0642184441549
 20
-146.1757709383965
 30
100.5212000767999
  0
VERTEX
  5
29C
  8
DEFAULT
 10
731.0459610161943
 20
-146.2043885104359
 30
100.5212000767999
  0
VERTEX
  5
29D
  8
DEFAULT
 10
731.0271651571256
 20
-146.2324676513672
 30
100.5212000767999
  0
VERTEX
  5
29E
  8
DEFAULT
 10
731.0078285870713
 20
-146.260006081313
 30
100.5212000767999
  0
VERTEX
  5
29F
  8
DEFAULT
 10
730.9879492943746
 20
-146.2870017886162
 30
100.5212000767999
  0
VERTEX
  5
2A0
  8
DEFAULT
 10
730.9675255355996
 20
-146.3134530298412
 30
100.5212000767999
  0
VERTEX
  5
2A1
  8
DEFAULT
 10
730.9465558355314
 20
-146.339358329773
 30
100.5212000767999
  0
VERTEX
  5
2A2
  8
DEFAULT
 10
730.9250389871759
 20
-146.3647164814175
 30
100.5212000767999
  0
VERTEX
  5
2A3
  8
DEFAULT
 10
730.9029740517599
 20
-146.3895265460015
 30
100.5212000767999
  0
VERTEX
  5
2A4
  8
DEFAULT
 10
730.8803603587312
 20
-146.4137878529728
 30
100.5212000767999
  0
VERTEX
  5
2A5
  8
DEFAULT
 10
730.8571975057584
 20
-146.4375000000001
 30
100.5212000767999
  0
VERTEX
  5
2A6
  8
DEFAULT
 10
730.8334853587312
 20
-146.4606628529728
 30
100.5212000767999
  0
VERTEX
  5
2A7
  8
DEFAULT
 10
730.8092240517599
 20
-146.4832765460015
 30
100.5212000767999
  0
VERTEX
  5
2A8
  8
DEFAULT
 10
730.7844139871759
 20
-146.5053414814175
 30
100.5212000767999
  0
VERTEX
  5
2A9
  8
DEFAULT
 10
730.7590558355314
 20
-146.526858329773
 30
100.5212000767999
  0
VERTEX
  5
2AA
  8
DEFAULT
 10
730.7331505355996
 20
-146.5478280298412
 30
100.5212000767999
  0
VERTEX
  5
2AB
  8
DEFAULT
 10
730.7066992943746
 20
-146.5682517886162
 30
100.5212000767999
  0
VERTEX
  5
2AC
  8
DEFAULT
 10
730.6797035870713
 20
-146.588131081313
 30
100.5212000767999
  0
VERTEX
  5
2AD
  8
DEFAULT
 10
730.6521651571256
 20
-146.6074676513672
 30
100.5212000767999
  0
VERTEX
  5
2AE
  8
DEFAULT
 10
730.6240860161943
 20
-146.6262635104359
 30
100.5212000767999
  0
VERTEX
  5
2AF
  8
DEFAULT
 10
730.5954684441549
 20
-146.6445209383965
 30
100.5212000767999
  0
VERTEX
  5
2B0
  8
DEFAULT
 10
730.5663149891061
 20
-146.6622424833477
 30
100.5212000767999
  0
VERTEX
  5
2B1
  8
DEFAULT
 10
730.5366284673673
 20
-146.6794309616089
 30
100.5212000767999
  0
VERTEX
  5
2B2
  8
DEFAULT
 10
730.506411963479
 20
-146.6960894577206
 30
100.5212000767999
  0
VERTEX
  5
2B3
  8
DEFAULT
 10
730.4756688302023
 20
-146.7122213244439
 30
100.5212000767999
  0
VERTEX
  5
2B4
  8
DEFAULT
 10
730.4444026885194
 20
-146.727830182761
 30
100.5212000767999
  0
VERTEX
  5
2B5
  8
DEFAULT
 10
730.4126174276333
 20
-146.7429199218751
 30
100.5212000767999
  0
VERTEX
  5
2B6
  8
DEFAULT
 10
730.3803172049682
 20
-146.75749469921
 30
100.5212000767999
  0
VERTEX
  5
2B7
  8
DEFAULT
 10
730.3475064461688
 20
-146.7715589404107
 30
100.5212000767999
  0
VERTEX
  5
2B8
  8
DEFAULT
 10
730.314189845101
 20
-146.7851173393429
 30
100.5212000767999
  0
VERTEX
  5
2B9
  8
DEFAULT
 10
730.2803723638515
 20
-146.7981748580933
 30
100.5212000767999
  0
VERTEX
  5
2BA
  8
DEFAULT
 10
730.2112559502582
 20
-146.8228084445
 30
100.5212000767999
  0
VERTEX
  5
2BB
  8
DEFAULT
 10
730.1402022665004
 20
-146.8455047607423
 30
100.5212000767999
  0
VERTEX
  5
2BC
  8
DEFAULT
 10
730.067260665224
 20
-146.8663131594659
 30
100.5212000767999
  0
VERTEX
  5
2BD
  8
DEFAULT
 10
729.9924847906093
 20
-146.8852872848512
 30
100.5212000767999
  0
VERTEX
  5
2BE
  8
DEFAULT
 10
729.915932578371
 20
-146.9024850726129
 30
100.5212000767999
  0
VERTEX
  5
2BF
  8
DEFAULT
 10
729.8376662557582
 20
-146.9179687500001
 30
100.5212000767999
  0
VERTEX
  5
2C0
  8
DEFAULT
 10
729.7577523415546
 20
-146.9318048357965
 30
100.5212000767999
  0
VERTEX
  5
2C1
  8
DEFAULT
 10
729.676261646078
 20
-146.9440641403199
 30
100.5212000767999
  0
VERTEX
  5
2C2
  8
DEFAULT
 10
729.593269271181
 20
-146.9548217654229
 30
100.5212000767999
  0
VERTEX
  5
2C3
  8
DEFAULT
 10
729.5088546102504
 20
-146.9641571044923
 30
100.5212000767999
  0
VERTEX
  5
2C4
  8
DEFAULT
 10
729.3360974615077
 20
-146.9788999557496
 30
100.5212000767999
  0
VERTEX
  5
2C5
  8
DEFAULT
 10
729.1587111776332
 20
-146.9890136718751
 30
100.5212000767999
  0
VERTEX
  5
2C6
  8
DEFAULT
 10
728.7932784383754
 20
-146.9985809326173
 30
100.5212000767999
  0
VERTEX
  5
2C7
  8
DEFAULT
 10
728.4196975057582
 20
-147.0000000000001
 30
100.5212000767999
  0
VERTEX
  5
2C8
  8
DEFAULT
 10
695.4196975057582
 20
-146.9999999999999
 30
100.5212000767999
  0
VERTEX
  5
2C9
  8
DEFAULT
 10
695.046116573141
 20
-146.9985809326171
 30
100.5212000767999
  0
VERTEX
  5
2CA
  8
DEFAULT
 10
694.6806838338832
 20
-146.9890136718749
 30
100.5212000767999
  0
VERTEX
  5
2CB
  8
DEFAULT
 10
694.5032975500087
 20
-146.9788999557494
 30
100.5212000767999
  0
VERTEX
  5
2CC
  8
DEFAULT
 10
694.330540401266
 20
-146.9641571044921
 30
100.5212000767999
  0
VERTEX
  5
2CD
  8
DEFAULT
 10
694.2461257403354
 20
-146.9548217654228
 30
100.5212000767999
  0
VERTEX
  5
2CE
  8
DEFAULT
 10
694.1631333654384
 20
-146.9440641403197
 30
100.5212000767999
  0
VERTEX
  5
2CF
  8
DEFAULT
 10
694.0816426699619
 20
-146.9318048357962
 30
100.5212000767999
  0
VERTEX
  5
2D0
  8
DEFAULT
 10
694.0017287557582
 20
-146.9179687499999
 30
100.5212000767999
  0
VERTEX
  5
2D1
  8
DEFAULT
 10
693.9234624331455
 20
-146.9024850726127
 30
100.5212000767999
  0
VERTEX
  5
2D2
  8
DEFAULT
 10
693.8469102209071
 20
-146.885287284851
 30
100.5212000767999
  0
VERTEX
  5
2D3
  8
DEFAULT
 10
693.7721343462924
 20
-146.8663131594657
 30
100.5212000767999
  0
VERTEX
  5
2D4
  8
DEFAULT
 10
693.699192745016
 20
-146.8455047607421
 30
100.5212000767999
  0
VERTEX
  5
2D5
  8
DEFAULT
 10
693.6281390612583
 20
-146.8228084444999
 30
100.5212000767999
  0
VERTEX
  5
2D6
  8
DEFAULT
 10
693.559022647665
 20
-146.7981748580931
 30
100.5212000767999
  0
VERTEX
  5
2D7
  8
DEFAULT
 10
693.5252051664154
 20
-146.7851173393427
 30
100.5212000767999
  0
VERTEX
  5
2D8
  8
DEFAULT
 10
693.4918885653476
 20
-146.7715589404105
 30
100.5212000767999
  0
VERTEX
  5
2D9
  8
DEFAULT
 10
693.4590778065483
 20
-146.7574946992098
 30
100.5212000767999
  0
VERTEX
  5
2DA
  8
DEFAULT
 10
693.4267775838832
 20
-146.7429199218749
 30
100.5212000767999
  0
VERTEX
  5
2DB
  8
DEFAULT
 10
693.3949923229973
 20
-146.7278301827608
 30
100.5212000767999
  0
VERTEX
  5
2DC
  8
DEFAULT
 10
693.3637261813144
 20
-146.7122213244437
 30
100.5212000767999
  0
VERTEX
  5
2DD
  8
DEFAULT
 10
693.3329830480377
 20
-146.6960894577204
 30
100.5212000767999
  0
VERTEX
  5
2DE
  8
DEFAULT
 10
693.3027665441493
 20
-146.6794309616088
 30
100.5212000767999
  0
VERTEX
  5
2DF
  8
DEFAULT
 10
693.2730800224106
 20
-146.6622424833475
 30
100.5212000767999
  0
VERTEX
  5
2E0
  8
DEFAULT
 10
693.2439265673618
 20
-146.6445209383963
 30
100.5212000767999
  0
VERTEX
  5
2E1
  8
DEFAULT
 10
693.2153089953224
 20
-146.6262635104357
 30
100.5212000767999
  0
VERTEX
  5
2E2
  8
DEFAULT
 10
693.187229854391
 20
-146.6074676513671
 30
100.5212000767999
  0
VERTEX
  5
2E3
  8
DEFAULT
 10
693.1596914244453
 20
-146.5881310813128
 30
100.5212000767999
  0
VERTEX
  5
2E4
  8
DEFAULT
 10
693.132695717142
 20
-146.5682517886161
 30
100.5212000767999
  0
VERTEX
  5
2E5
  8
DEFAULT
 10
693.106244475917
 20
-146.5478280298411
 30
100.5212000767999
  0
VERTEX
  5
2E6
  8
DEFAULT
 10
693.0803391759853
 20
-146.5268583297728
 30
100.5212000767999
  0
VERTEX
  5
2E7
  8
DEFAULT
 10
693.0549810243408
 20
-146.5053414814172
 30
100.5212000767999
  0
VERTEX
  5
2E8
  8
DEFAULT
 10
693.0301709597568
 20
-146.4832765460013
 30
100.5212000767999
  0
VERTEX
  5
2E9
  8
DEFAULT
 10
693.0059096527855
 20
-146.4606628529726
 30
100.5212000767999
  0
VERTEX
  5
2EA
  8
DEFAULT
 10
692.9821975057582
 20
-146.4374999999999
 30
100.5212000767999
  0
VERTEX
  5
2EB
  8
DEFAULT
 10
692.9590346527855
 20
-146.4137878529726
 30
100.5212000767999
  0
VERTEX
  5
2EC
  8
DEFAULT
 10
692.9364209597568
 20
-146.3895265460013
 30
100.5212000767999
  0
VERTEX
  5
2ED
  8
DEFAULT
 10
692.9143560243408
 20
-146.3647164814172
 30
100.5212000767999
  0
VERTEX
  5
2EE
  8
DEFAULT
 10
692.8928391759853
 20
-146.3393583297728
 30
100.5212000767999
  0
VERTEX
  5
2EF
  8
DEFAULT
 10
692.871869475917
 20
-146.313453029841
 30
100.5212000767999
  0
VERTEX
  5
2F0
  8
DEFAULT
 10
692.851445717142
 20
-146.287001788616
 30
100.5212000767999
  0
VERTEX
  5
2F1
  8
DEFAULT
 10
692.8315664244453
 20
-146.2600060813127
 30
100.5212000767999
  0
VERTEX
  5
2F2
  8
DEFAULT
 10
692.812229854391
 20
-146.232467651367
 30
100.5212000767999
  0
VERTEX
  5
2F3
  8
DEFAULT
 10
692.7934339953224
 20
-146.2043885104356
 30
100.5212000767999
  0
VERTEX
  5
2F4
  8
DEFAULT
 10
692.7751765673618
 20
-146.1757709383963
 30
100.5212000767999
  0
VERTEX
  5
2F5
  8
DEFAULT
 10
692.7574550224106
 20
-146.1466174833475
 30
100.5212000767999
  0
VERTEX
  5
2F6
  8
DEFAULT
 10
692.7402665441493
 20
-146.1169309616087
 30
100.5212000767999
  0
VERTEX
  5
2F7
  8
DEFAULT
 10
692.7236080480377
 20
-146.0867144577203
 30
100.5212000767999
  0
VERTEX
  5
2F8
  8
DEFAULT
 10
692.7074761813144
 20
-146.0559713244436
 30
100.5212000767999
  0
VERTEX
  5
2F9
  8
DEFAULT
 10
692.6918673229973
 20
-146.0247051827608
 30
100.5212000767999
  0
VERTEX
  5
2FA
  8
DEFAULT
 10
692.6767775838832
 20
-145.9929199218749
 30
100.5212000767999
  0
VERTEX
  5
2FB
  8
DEFAULT
 10
692.6622028065483
 20
-145.9606196992098
 30
100.5212000767999
  0
VERTEX
  5
2FC
  8
DEFAULT
 10
692.6481385653476
 20
-145.9278089404105
 30
100.5212000767999
  0
VERTEX
  5
2FD
  8
DEFAULT
 10
692.6345801664154
 20
-145.8944923393427
 30
100.5212000767999
  0
VERTEX
  5
2FE
  8
DEFAULT
 10
692.621522647665
 20
-145.8606748580931
 30
100.5212000767999
  0
VERTEX
  5
2FF
  8
DEFAULT
 10
692.5968890612583
 20
-145.7915584444999
 30
100.5212000767999
  0
VERTEX
  5
300
  8
DEFAULT
 10
692.574192745016
 20
-145.7205047607421
 30
100.5212000767999
  0
VERTEX
  5
301
  8
DEFAULT
 10
692.5533843462924
 20
-145.6475631594657
 30
100.5212000767999
  0
VERTEX
  5
302
  8
DEFAULT
 10
692.5344102209073
 20
-145.572787284851
 30
100.5212000767999
  0
VERTEX
  5
303
  8
DEFAULT
 10
692.5172124331456
 20
-145.4962350726126
 30
100.5212000767999
  0
VERTEX
  5
304
  8
DEFAULT
 10
692.5017287557583
 20
-145.4179687499999
 30
100.5212000767999
  0
VERTEX
  5
305
  8
DEFAULT
 10
692.4878926699619
 20
-145.3380548357962
 30
100.5212000767999
  0
VERTEX
  5
306
  8
DEFAULT
 10
692.4756333654384
 20
-145.2565641403197
 30
100.5212000767999
  0
VERTEX
  5
307
  8
DEFAULT
 10
692.4648757403356
 20
-145.1735717654227
 30
100.5212000767999
  0
VERTEX
  5
308
  8
DEFAULT
 10
692.4555404012661
 20
-145.0891571044921
 30
100.5212000767999
  0
VERTEX
  5
309
  8
DEFAULT
 10
692.4407975500087
 20
-144.9163999557494
 30
100.5212000767999
  0
VERTEX
  5
30A
  8
DEFAULT
 10
692.4306838338833
 20
-144.7390136718749
 30
100.5212000767999
  0
VERTEX
  5
30B
  8
DEFAULT
 10
692.4211165731413
 20
-144.3735809326171
 30
100.5212000767999
  0
VERTEX
  5
30C
  8
DEFAULT
 10
692.4196975057583
 20
-143.9999999999999
 30
100.5212000767999
  0
VERTEX
  5
30D
  8
DEFAULT
 10
692.4196975057583
 20
-131.0
 30
100.5212000767999
  0
VERTEX
  5
30E
  8
DEFAULT
 10
684.7383953576839
 20
-131.0
 30
100.5212000767999
  0
VERTEX
  5
30F
  8
DEFAULT
 10
684.7383953576839
 20
-128.0
 30
100.5212000767999
  0
VERTEX
  5
310
  8
DEFAULT
 10
673.1009996538329
 20
-128.0
 30
100.5212000767999
  0
VERTEX
  5
311
  8
DEFAULT
 10
673.1009996538329
 20
-131.0
 30
100.5212000767999
  0
VERTEX
  5
312
  8
DEFAULT
 10
662.7383953576839
 20
-131.0
 30
100.5212000767999
  0
VERTEX
  5
313
  8
DEFAULT
 10
662.7383953576839
 20
-128.0
 30
100.5212000767999
  0
VERTEX
  5
314
  8
DEFAULT
 10
651.1009996538329
 20
-128.0
 30
100.5212000767999
  0
VERTEX
  5
315
  8
DEFAULT
 10
651.1009996538329
 20
-131.0
 30
100.5212000767999
  0
VERTEX
  5
316
  8
DEFAULT
 10
641.4196975057584
 20
-131.0
 30
100.5212000767999
  0
VERTEX
  5
317
  8
DEFAULT
 10
641.4196975057584
 20
-110.041414492726
 30
100.5212000767999
  0
VERTEX
  5
318
  8
DEFAULT
 10
644.4196975057582
 20
-110.041414492726
 30
100.5212000767999
  0
VERTEX
  5
319
  8
DEFAULT
 10
644.4196975057583
 20
-91.4949371658725
 30
100.5212000767999
  0
VERTEX
  5
31A
  8
DEFAULT
 10
641.4196975057584
 20
-91.49493716587249
 30
100.5212000767999
  0
VERTEX
  5
31B
  8
DEFAULT
 10
641.4196975057584
 20
-47.2999999999999
 30
100.5212000767999
  0
VERTEX
  5
31C
  8
DEFAULT
 10
644.4196975057584
 20
-47.2999999999999
 30
100.5212000767999
  0
VERTEX
  5
31D
  8
DEFAULT
 10
644.4196975057584
 20
-28.7535226731462
 30
100.5212000767999
  0
VERTEX
  5
31E
  8
DEFAULT
 10
641.4196975057584
 20
-28.75352267314619
 30
100.5212000767999
  0
VERTEX
  5
31F
  8
DEFAULT
 10
641.4196975057584
 20
15.44141449272633
 30
100.5212000767999
  0
VERTEX
  5
320
  8
DEFAULT
 10
644.4196975057583
 20
15.44141449272641
 30
100.5212000767999
  0
VERTEX
  5
321
  8
DEFAULT
 10
644.4196975057582
 20
33.98789181957991
 30
100.5212000767999
  0
VERTEX
  5
322
  8
DEFAULT
 10
641.4196975057584
 20
33.98789181957989
 30
100.5212000767999
  0
VERTEX
  5
323
  8
DEFAULT
 10
641.4196975057584
 20
54.99999999999999
 30
100.5212000767999
  0
VERTEX
  5
324
  8
DEFAULT
 10
651.1009996538329
 20
54.99999999999999
 30
100.5212000767999
  0
VERTEX
  5
325
  8
DEFAULT
 10
651.1009996538329
 20
51.94647732685391
 30
100.5212000767999
  0
VERTEX
  5
326
  8
DEFAULT
 10
662.7383953576839
 20
51.94647732685391
 30
100.5212000767999
  0
VERTEX
  5
327
  8
DEFAULT
 10
662.7383953576839
 20
54.99999999999999
 30
100.5212000767999
  0
VERTEX
  5
328
  8
DEFAULT
 10
673.1009996538329
 20
54.99999999999999
 30
100.5212000767999
  0
VERTEX
  5
329
  8
DEFAULT
 10
673.1009996538329
 20
51.94647732685391
 30
100.5212000767999
  0
VERTEX
  5
32A
  8
DEFAULT
 10
684.7383953576839
 20
51.94647732685391
 30
100.5212000767999
  0
VERTEX
  5
32B
  8
DEFAULT
 10
684.7383953576839
 20
54.99999999999999
 30
100.5212000767999
  0
VERTEX
  5
32C
  8
DEFAULT
 10
692.4196975057583
 20
54.99999999999999
 30
100.5212000767999
  0
SEQEND
  5
32D
  8
DEFAULT
  0
POLYLINE
  5
32E
  8
DEFAULT
 66
     1
 10
0.0
 20
0.0
 30
100.5212000767999
 70
     1
  0
VERTEX
  5
32F
  8
DEFAULT
 10
854.4196975057584
 20
-28.75352267314619
 30
100.5212000767999
  0
VERTEX
  5
330
  8
DEFAULT
 10
854.6687514608366
 20
-28.75446871806807
 30
100.5212000767999
  0
VERTEX
  5
331
  8
DEFAULT
 10
854.9123732870084
 20
-28.76084689189619
 30
100.5212000767999
  0
VERTEX
  5
332
  8
DEFAULT
 10
855.0306308095915
 20
-28.76758936931319
 30
100.5212000767999
  0
VERTEX
  5
333
  8
DEFAULT
 10
855.1458022420867
 20
-28.77741793681808
 30
100.5212000767999
  0
VERTEX
  5
334
  8
DEFAULT
 10
855.202078682707
 20
-28.78364149619766
 30
100.5212000767999
  0
VERTEX
  5
335
  8
DEFAULT
 10
855.2574069326383
 20
-28.79081324626632
 30
100.5212000767999
  0
VERTEX
  5
336
  8
DEFAULT
 10
855.311734062956
 20
-28.79898611594863
 30
100.5212000767999
  0
VERTEX
  5
337
  8
DEFAULT
 10
855.3650100057586
 20
-28.80821017314621
 30
100.5212000767999
  0
VERTEX
  5
338
  8
DEFAULT
 10
855.4171875541671
 20
-28.81853262473771
 30
100.5212000767999
  0
VERTEX
  5
339
  8
DEFAULT
 10
855.4682223623258
 20
-28.82999781657884
 30
100.5212000767999
  0
VERTEX
  5
33A
  8
DEFAULT
 10
855.5180729454023
 20
-28.84264723350236
 30
100.5212000767999
  0
VERTEX
  5
33B
  8
DEFAULT
 10
855.5667006795866
 20
-28.8565194993181
 30
100.5212000767999
  0
VERTEX
  5
33C
  8
DEFAULT
 10
855.6140698020918
 20
-28.87165037681292
 30
100.5212000767999
  0
VERTEX
  5
33D
  8
DEFAULT
 10
855.660147411154
 20
-28.88807276775072
 30
100.5212000767999
  0
VERTEX
  5
33E
  8
DEFAULT
 10
855.6826923986537
 20
-28.89677778025101
 30
100.5212000767999
  0
VERTEX
  5
33F
  8
DEFAULT
 10
855.7049034660322
 20
-28.90581671287249
 30
100.5212000767999
  0
VERTEX
  5
340
  8
DEFAULT
 10
855.7267773052317
 20
-28.91519287367295
 30
100.5212000767999
  0
VERTEX
  5
341
  8
DEFAULT
 10
855.7483107870084
 20
-28.92490939189624
 30
100.5212000767999
  0
VERTEX
  5
342
  8
DEFAULT
 10
855.7695009609324
 20
-28.93496921797227
 30
100.5212000767999
  0
VERTEX
  5
343
  8
DEFAULT
 10
855.7903450553877
 20
-28.94537512351703
 30
100.5212000767999
  0
VERTEX
  5
344
  8
DEFAULT
 10
855.8108404775721
 20
-28.95612970133256
 30
100.5212000767999
  0
VERTEX
  5
345
  8
DEFAULT
 10
855.8309848134977
 20
-28.96723536540699
 30
100.5212000767999
  0
VERTEX
  5
346
  8
DEFAULT
 10
855.8507758279902
 20
-28.97869435091447
 30
100.5212000767999
  0
VERTEX
  5
347
  8
DEFAULT
 10
855.8702114646894
 20
-28.99050871421528
 30
100.5212000767999
  0
VERTEX
  5
348
  8
DEFAULT
 10
855.889289846049
 20
-29.0026803328557
 30
100.5212000767999
  0
VERTEX
  5
349
  8
DEFAULT
 10
855.9080092733366
 20
-29.01521090556813
 30
100.5212000767999
  0
VERTEX
  5
34A
  8
DEFAULT
 10
855.9263682266337
 20
-29.02810195227099
 30
100.5212000767999
  0
VERTEX
  5
34B
  8
DEFAULT
 10
855.9443653648358
 20
-29.0413548140688
 30
100.5212000767999
  0
VERTEX
  5
34C
  8
DEFAULT
 10
855.9619995256523
 20
-29.05497065325214
 30
100.5212000767999
  0
VERTEX
  5
34D
  8
DEFAULT
 10
855.9792697256069
 20
-29.06895045329763
 30
100.5212000767999
  0
VERTEX
  5
34E
  8
DEFAULT
 10
855.9961751600365
 20
-29.08329501886799
 30
100.5212000767999
  0
VERTEX
  5
34F
  8
DEFAULT
 10
856.0127152030927
 20
-29.09800497581198
 30
100.5212000767999
  0
VERTEX
  5
350
  8
DEFAULT
 10
856.0288894077402
 20
-29.11308077116444
 30
100.5212000767999
  0
VERTEX
  5
351
  8
DEFAULT
 10
856.0446975057583
 20
-29.12852267314627
 30
100.5212000767999
  0
VERTEX
  5
352
  8
DEFAULT
 10
856.06013940774
 20
-29.14433077116444
 30
100.5212000767999
  0
VERTEX
  5
353
  8
DEFAULT
 10
856.0752152030925
 20
-29.16050497581199
 30
100.5212000767999
  0
VERTEX
  5
354
  8
DEFAULT
 10
856.0899251600365
 20
-29.17704501886799
 30
100.5212000767999
  0
VERTEX
  5
355
  8
DEFAULT
 10
856.104269725607
 20
-29.19395045329764
 30
100.5212000767999
  0
VERTEX
  5
356
  8
DEFAULT
 10
856.1182495256526
 20
-29.21122065325215
 30
100.5212000767999
  0
VERTEX
  5
357
  8
DEFAULT
 10
856.1318653648359
 20
-29.22885481406882
 30
100.5212000767999
  0
VERTEX
  5
358
  8
DEFAULT
 10
856.1451182266337
 20
-29.24685195227102
 30
100.5212000767999
  0
VERTEX
  5
359
  8
DEFAULT
 10
856.1580092733366
 20
-29.26521090556815
 30
100.5212000767999
  0
VERTEX
  5
35A
  8
DEFAULT
 10
856.1705398460489
 20
-29.28393033285573
 30
100.5212000767999
  0
VERTEX
  5
35B
  8
DEFAULT
 10
856.1827114646893
 20
-29.30300871421531
 30
100.5212000767999
  0
VERTEX
  5
35C
  8
DEFAULT
 10
856.19452582799
 20
-29.32244435091451
 30
100.5212000767999
  0
VERTEX
  5
35D
  8
DEFAULT
 10
856.2059848134975
 20
-29.34223536540702
 30
100.5212000767999
  0
VERTEX
  5
35E
  8
DEFAULT
 10
856.2170904775719
 20
-29.3623797013326
 30
100.5212000767999
  0
VERTEX
  5
35F
  8
DEFAULT
 10
856.2278450553874
 20
-29.38287512351707
 30
100.5212000767999
  0
VERTEX
  5
360
  8
DEFAULT
 10
856.2382509609322
 20
-29.40371921797232
 30
100.5212000767999
  0
VERTEX
  5
361
  8
DEFAULT
 10
856.2483107870082
 20
-29.42490939189629
 30
100.5212000767999
  0
VERTEX
  5
362
  8
DEFAULT
 10
856.2580273052315
 20
-29.446442873673
 30
100.5212000767999
  0
VERTEX
  5
363
  8
DEFAULT
 10
856.267403466032
 20
-29.46831671287254
 30
100.5212000767999
  0
VERTEX
  5
364
  8
DEFAULT
 10
856.2764423986534
 20
-29.49052778025106
 30
100.5212000767999
  0
VERTEX
  5
365
  8
DEFAULT
 10
856.2851474111537
 20
-29.51307276775078
 30
100.5212000767999
  0
VERTEX
  5
366
  8
DEFAULT
 10
856.3015698020915
 20
-29.55915037681297
 30
100.5212000767999
  0
VERTEX
  5
367
  8
DEFAULT
 10
856.3167006795863
 20
-29.60651949931815
 30
100.5212000767999
  0
VERTEX
  5
368
  8
DEFAULT
 10
856.3305729454021
 20
-29.65514723350242
 30
100.5212000767999
  0
VERTEX
  5
369
  8
DEFAULT
 10
856.3432223623256
 20
-29.70499781657889
 30
100.5212000767999
  0
VERTEX
  5
36A
  8
DEFAULT
 10
856.3546875541667
 20
-29.75603262473776
 30
100.5212000767999
  0
VERTEX
  5
36B
  8
DEFAULT
 10
856.3650100057582
 20
-29.80821017314626
 30
100.5212000767999
  0
VERTEX
  5
36C
  8
DEFAULT
 10
856.3742340629558
 20
-29.86148611594869
 30
100.5212000767999
  0
VERTEX
  5
36D
  8
DEFAULT
 10
856.3824069326381
 20
-29.91581324626637
 30
100.5212000767999
  0
VERTEX
  5
36E
  8
DEFAULT
 10
856.3895786827068
 20
-29.9711414961977
 30
100.5212000767999
  0
VERTEX
  5
36F
  8
DEFAULT
 10
856.3958022420863
 20
-30.02741793681811
 30
100.5212000767999
  0
VERTEX
  5
370
  8
DEFAULT
 10
856.4056308095912
 20
-30.14258936931322
 30
100.5212000767999
  0
VERTEX
  5
371
  8
DEFAULT
 10
856.4123732870082
 20
-30.2608468918962
 30
100.5212000767999
  0
VERTEX
  5
372
  8
DEFAULT
 10
856.4187514608363
 20
-30.50446871806803
 30
100.5212000767999
  0
VERTEX
  5
373
  8
DEFAULT
 10
856.4196975057582
 20
-30.7535226731461
 30
100.5212000767999
  0
VERTEX
  5
374
  8
DEFAULT
 10
856.4196975057582
 20
-45.29999999999999
 30
100.5212000767999
  0
VERTEX
  5
375
  8
DEFAULT
 10
856.4187514608363
 20
-45.54905395507806
 30
100.5212000767999
  0
VERTEX
  5
376
  8
DEFAULT
 10
856.4123732870082
 20
-45.79267578124988
 30
100.5212000767999
  0
VERTEX
  5
377
  8
DEFAULT
 10
856.4056308095912
 20
-45.91093330383287
 30
100.5212000767999
  0
VERTEX
  5
378
  8
DEFAULT
 10
856.3958022420863
 20
-46.02610473632797
 30
100.5212000767999
  0
VERTEX
  5
379
  8
DEFAULT
 10
856.3895786827068
 20
-46.08238117694837
 30
100.5212000767999
  0
VERTEX
  5
37A
  8
DEFAULT
 10
856.3824069326381
 20
-46.13770942687971
 30
100.5212000767999
  0
VERTEX
  5
37B
  8
DEFAULT
 10
856.3742340629558
 20
-46.1920365571974
 30
100.5212000767999
  0
VERTEX
  5
37C
  8
DEFAULT
 10
856.3650100057582
 20
-46.24531249999982
 30
100.5212000767999
  0
VERTEX
  5
37D
  8
DEFAULT
 10
856.3546875541667
 20
-46.29749004840832
 30
100.5212000767999
  0
VERTEX
  5
37E
  8
DEFAULT
 10
856.3432223623256
 20
-46.34852485656718
 30
100.5212000767999
  0
VERTEX
  5
37F
  8
DEFAULT
 10
856.3305729454021
 20
-46.39837543964366
 30
100.5212000767999
  0
VERTEX
  5
380
  8
DEFAULT
 10
856.3167006795863
 20
-46.44700317382792
 30
100.5212000767999
  0
VERTEX
  5
381
  8
DEFAULT
 10
856.3015698020915
 20
-46.49437229633311
 30
100.5212000767999
  0
VERTEX
  5
382
  8
DEFAULT
 10
856.2851474111537
 20
-46.54044990539531
 30
100.5212000767999
  0
VERTEX
  5
383
  8
DEFAULT
 10
856.2764423986534
 20
-46.56299489289502
 30
100.5212000767999
  0
VERTEX
  5
384
  8
DEFAULT
 10
856.267403466032
 20
-46.58520596027354
 30
100.5212000767999
  0
VERTEX
  5
385
  8
DEFAULT
 10
856.2580273052315
 20
-46.60707979947308
 30
100.5212000767999
  0
VERTEX
  5
386
  8
DEFAULT
 10
856.2483107870082
 20
-46.6286132812498
 30
100.5212000767999
  0
VERTEX
  5
387
  8
DEFAULT
 10
856.2382509609322
 20
-46.64980345517377
 30
100.5212000767999
  0
VERTEX
  5
388
  8
DEFAULT
 10
856.2278450553874
 20
-46.67064754962901
 30
100.5212000767999
  0
VERTEX
  5
389
  8
DEFAULT
 10
856.2170904775719
 20
-46.69114297181348
 30
100.5212000767999
  0
VERTEX
  5
38A
  8
DEFAULT
 10
856.2059848134975
 20
-46.71128730773906
 30
100.5212000767999
  0
VERTEX
  5
38B
  8
DEFAULT
 10
856.19452582799
 20
-46.73107832223157
 30
100.5212000767999
  0
VERTEX
  5
38C
  8
DEFAULT
 10
856.1827114646893
 20
-46.75051395893077
 30
100.5212000767999
  0
VERTEX
  5
38D
  8
DEFAULT
 10
856.1705398460489
 20
-46.76959234029035
 30
100.5212000767999
  0
VERTEX
  5
38E
  8
DEFAULT
 10
856.1580092733366
 20
-46.78831176757794
 30
100.5212000767999
  0
VERTEX
  5
38F
  8
DEFAULT
 10
856.1451182266337
 20
-46.80667072087508
 30
100.5212000767999
  0
VERTEX
  5
390
  8
DEFAULT
 10
856.1318653648359
 20
-46.82466785907727
 30
100.5212000767999
  0
VERTEX
  5
391
  8
DEFAULT
 10
856.1182495256526
 20
-46.84230201989394
 30
100.5212000767999
  0
VERTEX
  5
392
  8
DEFAULT
 10
856.104269725607
 20
-46.85957221984845
 30
100.5212000767999
  0
VERTEX
  5
393
  8
DEFAULT
 10
856.0899251600365
 20
-46.87647765427809
 30
100.5212000767999
  0
VERTEX
  5
394
  8
DEFAULT
 10
856.0752152030925
 20
-46.89301769733412
 30
100.5212000767999
  0
VERTEX
  5
395
  8
DEFAULT
 10
856.06013940774
 20
-46.90919190198165
 30
100.5212000767999
  0
VERTEX
  5
396
  8
DEFAULT
 10
856.0446975057583
 20
-46.92499999999982
 30
100.5212000767999
  0
VERTEX
  5
397
  8
DEFAULT
 10
856.0288894077402
 20
-46.94044190198164
 30
100.5212000767999
  0
VERTEX
  5
398
  8
DEFAULT
 10
856.0127152030927
 20
-46.95551769733412
 30
100.5212000767999
  0
VERTEX
  5
399
  8
DEFAULT
 10
855.9961751600365
 20
-46.9702276542781
 30
100.5212000767999
  0
VERTEX
  5
39A
  8
DEFAULT
 10
855.9792697256069
 20
-46.98457221984846
 30
100.5212000767999
  0
VERTEX
  5
39B
  8
DEFAULT
 10
855.9619995256523
 20
-46.99855201989395
 30
100.5212000767999
  0
VERTEX
  5
39C
  8
DEFAULT
 10
855.9443653648358
 20
-47.01216785907728
 30
100.5212000767999
  0
VERTEX
  5
39D
  8
DEFAULT
 10
855.9263682266337
 20
-47.02542072087509
 30
100.5212000767999
  0
VERTEX
  5
39E
  8
DEFAULT
 10
855.9080092733366
 20
-47.03831176757796
 30
100.5212000767999
  0
VERTEX
  5
39F
  8
DEFAULT
 10
855.889289846049
 20
-47.05084234029037
 30
100.5212000767999
  0
VERTEX
  5
3A0
  8
DEFAULT
 10
855.8702114646894
 20
-47.0630139589308
 30
100.5212000767999
  0
VERTEX
  5
3A1
  8
DEFAULT
 10
855.8507758279902
 20
-47.0748283222316
 30
100.5212000767999
  0
VERTEX
  5
3A2
  8
DEFAULT
 10
855.8309848134977
 20
-47.0862873077391
 30
100.5212000767999
  0
VERTEX
  5
3A3
  8
DEFAULT
 10
855.8108404775721
 20
-47.09739297181353
 30
100.5212000767999
  0
VERTEX
  5
3A4
  8
DEFAULT
 10
855.7903450553877
 20
-47.10814754962906
 30
100.5212000767999
  0
VERTEX
  5
3A5
  8
DEFAULT
 10
855.7695009609324
 20
-47.11855345517382
 30
100.5212000767999
  0
VERTEX
  5
3A6
  8
DEFAULT
 10
855.7483107870084
 20
-47.12861328124986
 30
100.5212000767999
  0
VERTEX
  5
3A7
  8
DEFAULT
 10
855.7267773052317
 20
-47.13832979947314
 30
100.5212000767999
  0
VERTEX
  5
3A8
  8
DEFAULT
 10
855.7049034660322
 20
-47.14770596027361
 30
100.5212000767999
  0
VERTEX
  5
3A9
  8
DEFAULT
 10
855.6826923986537
 20
-47.15674489289509
 30
100.5212000767999
  0
VERTEX
  5
3AA
  8
DEFAULT
 10
855.660147411154
 20
-47.16544990539538
 30
100.5212000767999
  0
VERTEX
  5
3AB
  8
DEFAULT
 10
855.6140698020918
 20
-47.18187229633318
 30
100.5212000767999
  0
VERTEX
  5
3AC
  8
DEFAULT
 10
855.5667006795866
 20
-47.19700317382799
 30
100.5212000767999
  0
VERTEX
  5
3AD
  8
DEFAULT
 10
855.5180729454023
 20
-47.21087543964373
 30
100.5212000767999
  0
VERTEX
  5
3AE
  8
DEFAULT
 10
855.4682223623258
 20
-47.22352485656725
 30
100.5212000767999
  0
VERTEX
  5
3AF
  8
DEFAULT
 10
855.4171875541671
 20
-47.23499004840838
 30
100.5212000767999
  0
VERTEX
  5
3B0
  8
DEFAULT
 10
855.3650100057586
 20
-47.24531249999988
 30
100.5212000767999
  0
VERTEX
  5
3B1
  8
DEFAULT
 10
855.311734062956
 20
-47.25453655719745
 30
100.5212000767999
  0
VERTEX
  5
3B2
  8
DEFAULT
 10
855.2574069326383
 20
-47.26270942687977
 30
100.5212000767999
  0
VERTEX
  5
3B3
  8
DEFAULT
 10
855.202078682707
 20
-47.26988117694845
 30
100.5212000767999
  0
VERTEX
  5
3B4
  8
DEFAULT
 10
855.1458022420867
 20
-47.27610473632802
 30
100.5212000767999
  0
VERTEX
  5
3B5
  8
DEFAULT
 10
855.0306308095915
 20
-47.28593330383291
 30
100.5212000767999
  0
VERTEX
  5
3B6
  8
DEFAULT
 10
854.9123732870084
 20
-47.2926757812499
 30
100.5212000767999
  0
VERTEX
  5
3B7
  8
DEFAULT
 10
854.6687514608366
 20
-47.29905395507802
 30
100.5212000767999
  0
VERTEX
  5
3B8
  8
DEFAULT
 10
854.4196975057584
 20
-47.2999999999999
 30
100.5212000767999
  0
VERTEX
  5
3B9
  8
DEFAULT
 10
850.4196975057584
 20
-47.2999999999999
 30
100.5212000767999
  0
VERTEX
  5
3BA
  8
DEFAULT
 10
850.4196975057584
 20
-91.4949371658725
 30
100.5212000767999
  0
VERTEX
  5
3BB
  8
DEFAULT
 10
853.4196975057584
 20
-91.4949371658725
 30
100.5212000767999
  0
VERTEX
  5
3BC
  8
DEFAULT
 10
853.4196975057584
 20
-110.041414492726
 30
100.5212000767999
  0
VERTEX
  5
3BD
  8
DEFAULT
 10
850.4196975057584
 20
-110.041414492726
 30
100.5212000767999
  0
VERTEX
  5
3BE
  8
DEFAULT
 10
850.4196975057584
 20
-128.0
 30
100.5212000767999
  0
VERTEX
  5
3BF
  8
DEFAULT
 10
844.4196975057583
 20
-128.0
 30
100.5212000767999
  0
VERTEX
  5
3C0
  8
DEFAULT
 10
844.4196975057583
 20
-131.0
 30
100.5212000767999
  0
VERTEX
  5
3C1
  8
DEFAULT
 10
832.0
 20
-131.0
 30
100.5212000767999
  0
VERTEX
  5
3C2
  8
DEFAULT
 10
832.0
 20
-128.0
 30
100.5212000767999
  0
VERTEX
  5
3C3
  8
DEFAULT
 10
822.4196975057583
 20
-128.0
 30
100.5212000767999
  0
VERTEX
  5
3C4
  8
DEFAULT
 10
822.4196975057583
 20
-131.0
 30
100.5212000767999
  0
VERTEX
  5
3C5
  8
DEFAULT
 10
810.0
 20
-131.0
 30
100.5212000767999
  0
VERTEX
  5
3C6
  8
DEFAULT
 10
810.0
 20
-128.0
 30
100.5212000767999
  0
VERTEX
  5
3C7
  8
DEFAULT
 10
803.4196975057584
 20
-128.0
 30
100.5212000767999
  0
VERTEX
  5
3C8
  8
DEFAULT
 10
803.4196975057583
 20
-115.0
 30
100.5212000767999
  0
VERTEX
  5
3C9
  8
DEFAULT
 10
800.4196975057583
 20
-115.0
 30
100.5212000767999
  0
VERTEX
  5
3CA
  8
DEFAULT
 10
800.4196975057583
 20
-97.0
 30
100.5212000767999
  0
VERTEX
  5
3CB
  8
DEFAULT
 10
803.4196975057583
 20
-97.0
 30
100.5212000767999
  0
VERTEX
  5
3CC
  8
DEFAULT
 10
803.4196975057583
 20
-73.0
 30
100.5212000767999
  0
VERTEX
  5
3CD
  8
DEFAULT
 10
800.4196975057583
 20
-73.0
 30
100.5212000767999
  0
VERTEX
  5
3CE
  8
DEFAULT
 10
800.4196975057583
 20
-55.0
 30
100.5212000767999
  0
VERTEX
  5
3CF
  8
DEFAULT
 10
803.4196975057583
 20
-55.0
 30
100.5212000767999
  0
VERTEX
  5
3D0
  8
DEFAULT
 10
803.4196975057583
 20
-21.05352267314609
 30
100.5212000767999
  0
VERTEX
  5
3D1
  8
DEFAULT
 10
800.4196975057583
 20
-21.05352267314609
 30
100.5212000767999
  0
VERTEX
  5
3D2
  8
DEFAULT
 10
800.4196975057583
 20
-3.053522673146091
 30
100.5212000767999
  0
VERTEX
  5
3D3
  8
DEFAULT
 10
803.4196975057583
 20
-3.053522673146091
 30
100.5212000767999
  0
VERTEX
  5
3D4
  8
DEFAULT
 10
803.4196975057583
 20
20.94647732685391
 30
100.5212000767999
  0
VERTEX
  5
3D5
  8
DEFAULT
 10
800.4196975057583
 20
20.94647732685391
 30
100.5212000767999
  0
VERTEX
  5
3D6
  8
DEFAULT
 10
800.4196975057583
 20
38.94647732685391
 30
100.5212000767999
  0
VERTEX
  5
3D7
  8
DEFAULT
 10
803.4196975057583
 20
38.94647732685391
 30
100.5212000767999
  0
VERTEX
  5
3D8
  8
DEFAULT
 10
803.4196975057584
 20
51.94647732685389
 30
100.5212000767999
  0
VERTEX
  5
3D9
  8
DEFAULT
 10
810.0
 20
51.94647732685388
 30
100.5212000767999
  0
VERTEX
  5
3DA
  8
DEFAULT
 10
810.0
 20
54.94647732685388
 30
100.5212000767999
  0
VERTEX
  5
3DB
  8
DEFAULT
 10
822.4196975057583
 20
54.94647732685388
 30
100.5212000767999
  0
VERTEX
  5
3DC
  8
DEFAULT
 10
822.4196975057583
 20
51.94647732685388
 30
100.5212000767999
  0
VERTEX
  5
3DD
  8
DEFAULT
 10
832.0
 20
51.94647732685388
 30
100.5212000767999
  0
VERTEX
  5
3DE
  8
DEFAULT
 10
832.0
 20
54.94647732685388
 30
100.5212000767999
  0
VERTEX
  5
3DF
  8
DEFAULT
 10
844.4196975057583
 20
54.94647732685388
 30
100.5212000767999
  0
VERTEX
  5
3E0
  8
DEFAULT
 10
844.4196975057583
 20
51.94647732685388
 30
100.5212000767999
  0
VERTEX
  5
3E1
  8
DEFAULT
 10
850.4196975057584
 20
51.94647732685391
 30
100.5212000767999
  0
VERTEX
  5
3E2
  8
DEFAULT
 10
850.4196975057584
 20
33.98789181957991
 30
100.5212000767999
  0
VERTEX
  5
3E3
  8
DEFAULT
 10
853.4196975057584
 20
33.98789181957991
 30
100.5212000767999
  0
VERTEX
  5
3E4
  8
DEFAULT
 10
853.4196975057584
 20
15.44141449272641
 30
100.5212000767999
  0
VERTEX
  5
3E5
  8
DEFAULT
 10
850.4196975057584
 20
15.44141449272641
 30
100.5212000767999
  0
VERTEX
  5
3E6
  8
DEFAULT
 10
850.4196975057584
 20
-28.75352267314619
 30
100.5212000767999
  0
SEQEND
  5
3E7
  8
DEFAULT
  0
POLYLINE
  5
3E8
  8
DEFAULT
 66
     1
 10
0.0
 20
0.0
 30
100.5212000767999
 70
     1
  0
VERTEX
  5
3E9
  8
DEFAULT
 10
952.4196975057584
 20
-21.05352267314609
 30
100.5212000767999
  0
VERTEX
  5
3EA
  8
DEFAULT
 10
952.4196975057584
 20
-3.053522673146091
 30
100.5212000767999
  0
VERTEX
  5
3EB
  8
DEFAULT
 10
955.4196975057586
 20
-3.053522673146077
 30
100.5212000767999
  0
VERTEX
  5
3EC
  8
DEFAULT
 10
955.4196975057586
 20
20.94647732685388
 30
100.5212000767999
  0
VERTEX
  5
3ED
  8
DEFAULT
 10
952.4196975057584
 20
20.94647732685391
 30
100.5212000767999
  0
VERTEX
  5
3EE
  8
DEFAULT
 10
952.4196975057584
 20
38.94647732685391
 30
100.5212000767999
  0
VERTEX
  5
3EF
  8
DEFAULT
 10
955.4196975057586
 20
38.94647732685391
 30
100.5212000767999
  0
VERTEX
  5
3F0
  8
DEFAULT
 10
955.4196975057584
 20
54.94647732685391
 30
100.5212000767999
  0
VERTEX
  5
3F1
  8
DEFAULT
 10
944.738395357684
 20
54.94647732685391
 30
100.5212000767999
  0
VERTEX
  5
3F2
  8
DEFAULT
 10
944.738395357684
 20
51.94647732685391
 30
100.5212000767999
  0
VERTEX
  5
3F3
  8
DEFAULT
 10
933.1009996538329
 20
51.94647732685391
 30
100.5212000767999
  0
VERTEX
  5
3F4
  8
DEFAULT
 10
933.1009996538329
 20
54.94647732685391
 30
100.5212000767999
  0
VERTEX
  5
3F5
  8
DEFAULT
 10
921.738395357684
 20
54.94647732685391
 30
100.5212000767999
  0
VERTEX
  5
3F6
  8
DEFAULT
 10
921.738395357684
 20
51.94647732685391
 30
100.5212000767999
  0
VERTEX
  5
3F7
  8
DEFAULT
 10
910.1009996538329
 20
51.94647732685391
 30
100.5212000767999
  0
VERTEX
  5
3F8
  8
DEFAULT
 10
910.1009996538329
 20
54.94647732685391
 30
100.5212000767999
  0
VERTEX
  5
3F9
  8
DEFAULT
 10
904.4196975057586
 20
54.94647732685391
 30
100.5212000767999
  0
VERTEX
  5
3FA
  8
DEFAULT
 10
904.4196975057586
 20
68.17323866342687
 30
100.5212000767999
  0
VERTEX
  5
3FB
  8
DEFAULT
 10
887.238395357684
 20
68.17323866342687
 30
100.5212000767999
  0
VERTEX
  5
3FC
  8
DEFAULT
 10
887.238395357684
 20
65.17323866342687
 30
100.5212000767999
  0
VERTEX
  5
3FD
  8
DEFAULT
 10
875.600999653833
 20
65.17323866342687
 30
100.5212000767999
  0
VERTEX
  5
3FE
  8
DEFAULT
 10
875.600999653833
 20
68.17323866342687
 30
100.5212000767999
  0
VERTEX
  5
3FF
  8
DEFAULT
 10
865.4196975057586
 20
68.17323866342687
 30
100.5212000767999
  0
VERTEX
  5
400
  8
DEFAULT
 10
865.4196975057586
 20
-144.226761336573
 30
100.5212000767999
  0
VERTEX
  5
401
  8
DEFAULT
 10
875.600999653833
 20
-144.226761336573
 30
100.5212000767999
  0
VERTEX
  5
402
  8
DEFAULT
 10
875.600999653833
 20
-141.226761336573
 30
100.5212000767999
  0
VERTEX
  5
403
  8
DEFAULT
 10
887.238395357684
 20
-141.226761336573
 30
100.5212000767999
  0
VERTEX
  5
404
  8
DEFAULT
 10
887.238395357684
 20
-144.226761336573
 30
100.5212000767999
  0
VERTEX
  5
405
  8
DEFAULT
 10
904.4196975057586
 20
-144.226761336573
 30
100.5212000767999
  0
VERTEX
  5
406
  8
DEFAULT
 10
904.4196975057586
 20
-131.0
 30
100.5212000767999
  0
VERTEX
  5
407
  8
DEFAULT
 10
910.1009996538329
 20
-131.0
 30
100.5212000767999
  0
VERTEX
  5
408
  8
DEFAULT
 10
910.1009996538329
 20
-128.0
 30
100.5212000767999
  0
VERTEX
  5
409
  8
DEFAULT
 10
921.738395357684
 20
-128.0
 30
100.5212000767999
  0
VERTEX
  5
40A
  8
DEFAULT
 10
921.738395357684
 20
-131.0
 30
100.5212000767999
  0
VERTEX
  5
40B
  8
DEFAULT
 10
933.1009996538329
 20
-131.0
 30
100.5212000767999
  0
VERTEX
  5
40C
  8
DEFAULT
 10
933.1009996538329
 20
-128.0
 30
100.5212000767999
  0
VERTEX
  5
40D
  8
DEFAULT
 10
944.738395357684
 20
-128.0
 30
100.5212000767999
  0
VERTEX
  5
40E
  8
DEFAULT
 10
944.738395357684
 20
-131.0
 30
100.5212000767999
  0
VERTEX
  5
40F
  8
DEFAULT
 10
955.4196975057584
 20
-131.0
 30
100.5212000767999
  0
VERTEX
  5
410
  8
DEFAULT
 10
955.4196975057586
 20
-115.0
 30
100.5212000767999
  0
VERTEX
  5
411
  8
DEFAULT
 10
952.4196975057584
 20
-115.0
 30
100.5212000767999
  0
VERTEX
  5
412
  8
DEFAULT
 10
952.4196975057584
 20
-97.0
 30
100.5212000767999
  0
VERTEX
  5
413
  8
DEFAULT
 10
955.4196975057586
 20
-96.99999999999996
 30
100.5212000767999
  0
VERTEX
  5
414
  8
DEFAULT
 10
955.4196975057586
 20
-73.00000000000001
 30
100.5212000767999
  0
VERTEX
  5
415
  8
DEFAULT
 10
952.4196975057584
 20
-73.0
 30
100.5212000767999
  0
VERTEX
  5
416
  8
DEFAULT
 10
952.4196975057584
 20
-55.0
 30
100.5212000767999
  0
VERTEX
  5
417
  8
DEFAULT
 10
955.4196975057586
 20
-54.99999999999998
 30
100.5212000767999
  0
VERTEX
  5
418
  8
DEFAULT
 10
955.4196975057586
 20
-21.05352267314611
 30
100.5212000767999
  0
SEQEND
  5
419
  8
DEFAULT
  0
POLYLINE
  5
41A
  8
DEFAULT
 66
     1
 10
0.0
 20
0.0
 30
100.5212000767999
 70
     1
  0
VERTEX
  5
41B
  8
DEFAULT
 10
708.9196975057583
 20
65.1732386634269
 30
100.5212000767999
  0
VERTEX
  5
41C
  8
DEFAULT
 10
718.9196975057583
 20
65.1732386634269
 30
100.5212000767999
  0
VERTEX
  5
41D
  8
DEFAULT
 10
718.9196975057583
 20
68.17323866342691
 30
100.5212000767999
  0
VERTEX
  5
41E
  8
DEFAULT
 10
708.9196975057583
 20
68.1732386634269
 30
100.5212000767999
  0
SEQEND
  5
41F
  8
DEFAULT
  0
POLYLINE
  5
420
  8
DEFAULT
 66
     1
 10
0.0
 20
0.0
 30
100.5212000767999
 70
     1
  0
VERTEX
  5
421
  8
DEFAULT
 10
715.9408975825584
 20
-141.226761336573
 30
100.5212000767999
  0
VERTEX
  5
422
  8
DEFAULT
 10
708.9196975057583
 20
-141.226761336573
 30
100.5212000767999
  0
VERTEX
  5
423
  8
DEFAULT
 10
708.9196975057583
 20
-144.226761336573
 30
100.5212000767999
  0
VERTEX
  5
424
  8
DEFAULT
 10
718.9196975057583
 20
-144.226761336573
 30
100.5212000767999
  0
VERTEX
  5
425
  8
DEFAULT
 10
718.9196975057583
 20
-141.226761336573
 30
100.5212000767999
  0
SEQEND
  5
426
  8
DEFAULT
  0
ENDSEC
  0
EOF
